<svg width="351" height="607" viewBox="0 0 351 607" fill="none" xmlns="http://www.w3.org/2000/svg">
<path fill-rule="evenodd" clip-rule="evenodd" d="M242.546 206.194C241.789 206.477 240.956 206.055 240.687 205.251C240.144 203.629 239.723 201.275 239.324 198.985C239.296 198.82 239.267 198.655 239.239 198.491C238.857 196.295 238.482 194.134 238.025 192.414C237.807 191.593 238.257 190.742 239.031 190.514C239.805 190.285 240.609 190.765 240.827 191.586C241.323 193.451 241.722 195.752 242.095 197.903C242.126 198.081 242.157 198.258 242.187 198.434C242.6 200.805 242.982 202.887 243.431 204.227C243.7 205.031 243.304 205.912 242.546 206.194Z" fill="#CBD5E1"/>
<path fill-rule="evenodd" clip-rule="evenodd" d="M250.966 234.102C250.198 233.846 249.77 232.98 250.009 232.167C250.179 231.591 250.167 230.606 249.874 229.195C249.591 227.832 249.091 226.273 248.487 224.667C247.684 222.527 246.774 220.484 246.008 218.764C245.599 217.846 245.231 217.02 244.942 216.321C244.62 215.539 244.955 214.631 245.692 214.291C246.428 213.951 247.286 214.31 247.609 215.091C247.839 215.647 248.17 216.393 248.555 217.26C249.346 219.039 250.364 221.328 251.192 223.534C251.822 225.21 252.386 226.944 252.718 228.54C253.039 230.088 253.191 231.727 252.789 233.094C252.55 233.907 251.733 234.358 250.966 234.102Z" fill="#CBD5E1"/>
<path fill-rule="evenodd" clip-rule="evenodd" d="M247.514 255.639C250.404 252.407 251.897 248.026 252.565 243.42C252.687 242.578 253.43 242.002 254.225 242.135C255.02 242.267 255.565 243.056 255.443 243.898C254.725 248.845 253.077 253.911 249.629 257.765C249.077 258.383 248.156 258.407 247.571 257.82C246.987 257.233 246.961 256.256 247.514 255.639Z" fill="#CBD5E1"/>
<path fill-rule="evenodd" clip-rule="evenodd" d="M244.931 267.741C245.515 268.329 245.541 269.305 244.989 269.923L235.481 280.552C234.929 281.169 234.007 281.194 233.423 280.607C232.839 280.019 232.813 279.043 233.365 278.425L242.873 267.796C243.425 267.179 244.346 267.154 244.931 267.741Z" fill="#CBD5E1"/>
<path fill-rule="evenodd" clip-rule="evenodd" d="M201.605 406.585C202.189 407.172 202.215 408.149 201.663 408.767L191.363 420.281C190.811 420.899 189.889 420.923 189.305 420.336C188.721 419.749 188.695 418.772 189.247 418.155L199.547 406.64C200.099 406.022 201.021 405.998 201.605 406.585Z" fill="#CBD5E1"/>
<path fill-rule="evenodd" clip-rule="evenodd" d="M169.226 452.194C168.499 451.828 168.188 450.907 168.532 450.138C170.356 446.057 173.155 443.007 175.906 440.01C176.434 439.435 176.96 438.862 177.477 438.284C178.029 437.667 178.951 437.642 179.535 438.229C180.119 438.817 180.145 439.793 179.593 440.411C179.023 441.048 178.463 441.66 177.915 442.258C175.173 445.254 172.764 447.885 171.164 451.466C170.82 452.235 169.952 452.561 169.226 452.194Z" fill="#CBD5E1"/>
<path fill-rule="evenodd" clip-rule="evenodd" d="M214.945 391.799C214.649 392.451 214.275 393.15 213.593 393.913L208.126 400.024C207.574 400.642 206.653 400.666 206.068 400.079C205.484 399.491 205.458 398.515 206.01 397.897L211.477 391.786C211.887 391.328 212.106 390.928 212.319 390.457C212.368 390.349 212.421 390.226 212.48 390.089C212.666 389.656 212.906 389.096 213.229 388.53C213.746 387.624 214.098 386.57 214.466 385.351C214.514 385.192 214.562 385.03 214.611 384.865C214.923 383.816 215.271 382.648 215.754 381.566C216.098 380.797 216.966 380.471 217.693 380.837C218.419 381.204 218.73 382.125 218.386 382.894C217.995 383.77 217.713 384.714 217.396 385.778C217.345 385.948 217.293 386.121 217.24 386.298C216.87 387.524 216.432 388.887 215.722 390.133C215.493 390.533 215.355 390.855 215.19 391.24C215.117 391.41 215.039 391.592 214.945 391.799Z" fill="#CBD5E1"/>
<path fill-rule="evenodd" clip-rule="evenodd" d="M218.664 369.834C217.974 369.394 217.751 368.445 218.164 367.716C218.912 366.397 218.903 365.457 218.674 364.417C218.573 363.959 218.437 363.515 218.274 362.983C218.223 362.816 218.169 362.641 218.113 362.454C217.89 361.708 217.653 360.847 217.521 359.868C217.404 359 217.216 357.982 216.927 357.061C216.627 356.103 216.273 355.429 215.922 355.076C215.338 354.489 215.312 353.512 215.864 352.895C216.417 352.277 217.338 352.253 217.922 352.84C218.797 353.719 219.339 354.974 219.69 356.097C220.053 357.256 220.272 358.471 220.403 359.44C220.501 360.164 220.679 360.832 220.888 361.528C220.93 361.667 220.974 361.811 221.019 361.959C221.19 362.515 221.377 363.126 221.509 363.725C221.878 365.403 221.864 367.19 220.661 369.312C220.247 370.041 219.353 370.275 218.664 369.834Z" fill="#CBD5E1"/>
<path fill-rule="evenodd" clip-rule="evenodd" d="M215.228 344.826C214.45 345.04 213.655 344.545 213.451 343.72C213.101 342.306 212.917 340.912 212.746 339.625C212.725 339.464 212.704 339.305 212.683 339.148C212.488 337.699 212.284 336.367 211.87 335.041C211.553 334.029 211.623 332.999 211.669 332.313C211.675 332.23 211.68 332.152 211.684 332.08C211.73 331.304 211.702 330.884 211.51 330.497C211.135 329.742 211.408 328.81 212.119 328.415C212.83 328.02 213.71 328.311 214.086 329.066C214.685 330.272 214.639 331.457 214.59 332.28C214.587 332.346 214.583 332.41 214.579 332.471C214.532 333.271 214.507 333.677 214.633 334.079C215.137 335.689 215.369 337.261 215.566 338.723C215.587 338.884 215.608 339.044 215.63 339.203C215.803 340.51 215.963 341.719 216.267 342.946C216.471 343.771 216.006 344.613 215.228 344.826Z" fill="#CBD5E1"/>
<path fill-rule="evenodd" clip-rule="evenodd" d="M211.158 321.187C210.415 320.859 210.062 319.955 210.369 319.169C210.85 317.938 211.018 317.304 211.076 316.732C211.137 316.125 211.086 315.505 210.969 314.198C210.89 313.313 211.156 312.396 211.319 311.837C211.338 311.771 211.356 311.71 211.371 311.654C211.576 310.924 211.579 310.691 211.552 310.591C211.326 309.775 211.354 308.941 211.445 308.226C211.536 307.508 211.71 306.776 211.859 306.153C212.016 305.491 212.145 304.952 212.208 304.473C212.273 303.983 212.239 303.747 212.208 303.655C211.939 302.852 212.335 301.971 213.093 301.688C213.85 301.405 214.682 301.827 214.952 302.631C215.216 303.421 215.179 304.244 215.091 304.91C215.006 305.557 214.844 306.238 214.702 306.832C214.695 306.86 214.689 306.889 214.682 306.917C214.527 307.568 214.396 308.131 214.331 308.647C214.265 309.167 214.284 309.51 214.346 309.732C214.646 310.818 214.342 311.902 214.169 312.516C214.167 312.525 214.165 312.533 214.162 312.542C213.934 313.356 213.846 313.674 213.868 313.917C213.872 313.964 213.876 314.01 213.88 314.056C213.983 315.2 214.066 316.126 213.971 317.069C213.868 318.086 213.572 319.046 213.059 320.357C212.752 321.143 211.901 321.515 211.158 321.187Z" fill="#CBD5E1"/>
<path fill-rule="evenodd" clip-rule="evenodd" d="M99.0921 546.85C99.3114 547.649 98.8491 548.5 98.0597 548.752L83.5117 553.378C82.7222 553.629 81.9045 553.185 81.6852 552.386C81.466 551.588 81.9282 550.736 82.7177 550.485L97.2657 545.859C98.0551 545.607 98.8728 546.052 99.0921 546.85Z" fill="#CBD5E1"/>
<path fill-rule="evenodd" clip-rule="evenodd" d="M48.7493 569.527C48.2913 568.849 48.4707 567.901 49.15 567.41C52.7266 564.824 56.6504 563.633 60.4984 562.465C61.236 562.241 61.9708 562.018 62.6999 561.786C63.4893 561.535 64.307 561.979 64.5263 562.778C64.7456 563.577 64.2833 564.428 63.4939 564.679C62.6877 564.935 61.9023 565.175 61.1359 565.409C57.2971 566.58 53.9332 567.607 50.8087 569.866C50.1294 570.357 49.2073 570.206 48.7493 569.527Z" fill="#CBD5E1"/>
<path fill-rule="evenodd" clip-rule="evenodd" d="M19.7255 587.601C19.1759 586.999 19.2229 586.039 19.8306 585.456C19.9484 585.344 20.0647 585.232 20.1798 585.122C22.7897 582.619 24.7146 580.774 26.9328 579.274C29.2842 577.684 31.9094 576.514 35.9693 575.223C36.7587 574.971 37.5765 575.416 37.7957 576.214C38.015 577.013 37.5527 577.864 36.7633 578.116C32.8461 579.361 30.5244 580.424 28.5115 581.786C26.518 583.134 24.7735 584.806 22.0483 587.418C21.9733 587.49 21.8975 587.562 21.821 587.636C21.2133 588.218 20.2752 588.202 19.7255 587.601Z" fill="#CBD5E1"/>
<path fill-rule="evenodd" clip-rule="evenodd" d="M0.456577 606.064C-0.0930566 605.462 -0.0460342 604.503 0.561605 603.92C1.71236 602.817 2.77546 601.612 3.90395 600.332C4.12744 600.079 4.35351 599.823 4.58332 599.564C5.95117 598.022 7.42622 596.417 9.15647 594.972C9.80141 594.434 10.7339 594.517 11.2392 595.159C11.7446 595.8 11.6314 596.757 10.9865 597.295C9.4483 598.579 8.10416 600.034 6.75086 601.559C6.53557 601.802 6.31926 602.047 6.10155 602.294C4.97329 603.574 3.80739 604.897 2.55201 606.1C1.94437 606.682 1.00621 606.666 0.456577 606.064Z" fill="#CBD5E1"/>
<path fill-rule="evenodd" clip-rule="evenodd" d="M117.863 540.95C117.287 541.362 116.617 541.775 115.647 542.084L107.926 544.54C107.136 544.791 106.319 544.347 106.099 543.548C105.88 542.749 106.342 541.898 107.132 541.647L114.853 539.191C115.425 539.009 115.805 538.78 116.217 538.485C116.311 538.418 116.417 538.339 116.533 538.252C116.906 537.974 117.391 537.612 117.949 537.289C118.833 536.777 119.649 536.053 120.562 535.189C120.681 535.078 120.801 534.963 120.924 534.846C121.706 534.101 122.578 533.271 123.526 532.585C124.206 532.094 125.128 532.245 125.586 532.924C126.044 533.602 125.864 534.55 125.185 535.041C124.421 535.593 123.719 536.261 122.926 537.015C122.799 537.136 122.669 537.259 122.537 537.384C121.62 538.251 120.573 539.204 119.345 539.915C118.954 540.142 118.681 540.346 118.351 540.592C118.204 540.701 118.047 540.819 117.863 540.95Z" fill="#CBD5E1"/>
<path fill-rule="evenodd" clip-rule="evenodd" d="M131.755 523.948C131.367 523.224 131.638 522.296 132.36 521.875C133.639 521.13 134.088 520.322 134.397 519.3C134.533 518.852 134.631 518.397 134.749 517.854C134.785 517.684 134.824 517.506 134.866 517.316C135.035 516.558 135.248 515.694 135.609 514.783C135.929 513.973 136.262 512.997 136.46 512.051C136.666 511.07 136.688 510.297 136.552 509.8C136.333 509.001 136.795 508.15 137.584 507.899C138.374 507.648 139.191 508.092 139.411 508.891C139.739 510.088 139.601 511.441 139.36 512.591C139.112 513.776 138.712 514.935 138.354 515.839C138.086 516.515 137.916 517.184 137.758 517.893C137.727 518.035 137.695 518.182 137.662 518.333C137.54 518.9 137.406 519.523 137.229 520.107C136.735 521.739 135.853 523.28 133.764 524.498C133.042 524.918 132.142 524.672 131.755 523.948Z" fill="#CBD5E1"/>
<path fill-rule="evenodd" clip-rule="evenodd" d="M140.957 500.587C140.168 500.386 139.71 499.564 139.933 498.751C140.317 497.353 140.835 496.056 141.313 494.857C141.373 494.708 141.432 494.56 141.49 494.414C142.026 493.063 142.497 491.807 142.783 490.448C143 489.415 143.561 488.563 143.936 487.994C143.981 487.926 144.023 487.861 144.062 487.801C144.477 487.159 144.661 486.779 144.682 486.337C144.724 485.499 145.42 484.832 146.239 484.846C147.057 484.86 147.687 485.55 147.646 486.387C147.58 487.726 146.967 488.722 146.522 489.411C146.486 489.467 146.451 489.521 146.418 489.572C145.989 490.235 145.77 490.574 145.683 490.988C145.337 492.635 144.775 494.109 144.234 495.472C144.175 495.622 144.115 495.771 144.056 495.919C143.571 497.136 143.122 498.263 142.788 499.479C142.565 500.291 141.745 500.788 140.957 500.587Z" fill="#CBD5E1"/>
<path fill-rule="evenodd" clip-rule="evenodd" d="M148.91 478.11C148.418 477.457 148.551 476.503 149.207 475.978C150.221 475.166 150.674 474.707 151 474.246C151.348 473.755 151.605 473.194 152.14 472.006C152.503 471.2 153.183 470.544 153.596 470.144C153.645 470.097 153.69 470.054 153.73 470.014C154.261 469.493 154.377 469.295 154.402 469.191C154.602 468.374 155.032 467.67 155.46 467.098C155.89 466.524 156.398 465.981 156.83 465.52C157.289 465.03 157.662 464.632 157.949 464.253C158.242 463.865 158.328 463.644 158.347 463.544C158.504 462.717 159.282 462.154 160.087 462.286C160.891 462.418 161.416 463.195 161.26 464.022C161.106 464.834 160.675 465.525 160.273 466.057C159.883 466.572 159.41 467.077 158.999 467.516C158.979 467.537 158.959 467.558 158.94 467.579C158.488 468.061 158.102 468.478 157.794 468.889C157.485 469.301 157.335 469.607 157.279 469.834C157.012 470.924 156.218 471.705 155.767 472.148L155.75 472.165C155.155 472.75 154.927 472.976 154.829 473.196C154.809 473.238 154.79 473.281 154.771 473.323C154.304 474.362 153.926 475.203 153.384 475.969C152.799 476.795 152.072 477.473 150.987 478.342C150.332 478.866 149.402 478.763 148.91 478.11Z" fill="#CBD5E1"/>
<path fill-rule="evenodd" clip-rule="evenodd" d="M309.007 63.662C309.498 64.3297 309.36 65.2767 308.7 65.7771L297.436 74.3153C296.776 74.8157 295.843 74.6801 295.353 74.0124C294.862 73.3446 295 72.3976 295.66 71.8972L306.924 63.359C307.585 62.8586 308.517 62.9942 309.007 63.662Z" fill="#CBD5E1"/>
<path fill-rule="evenodd" clip-rule="evenodd" d="M271.924 98.9243C271.255 98.4417 271.101 97.4986 271.579 96.8179C273.909 93.5023 276.974 91.2401 279.971 89.0284C280.545 88.6048 281.116 88.1831 281.679 87.7561C282.339 87.2557 283.272 87.3913 283.762 88.0591C284.253 88.7268 284.115 89.6738 283.455 90.1743C282.829 90.6484 282.217 91.1016 281.62 91.5435C278.633 93.7553 276.024 95.6868 274.001 98.5654C273.523 99.2462 272.593 99.4069 271.924 98.9243Z" fill="#CBD5E1"/>
<path fill-rule="evenodd" clip-rule="evenodd" d="M252.182 123.338C251.454 122.954 251.173 122.042 251.554 121.301C251.623 121.168 251.691 121.037 251.757 120.907C253.263 117.985 254.377 115.822 255.854 113.852C257.42 111.764 259.355 109.94 262.5 107.556C263.161 107.055 264.093 107.191 264.584 107.859C265.074 108.526 264.936 109.473 264.276 109.974C261.245 112.271 259.552 113.901 258.221 115.676C256.901 117.436 255.896 119.385 254.321 122.442C254.279 122.524 254.236 122.608 254.192 122.692C253.81 123.433 252.91 123.722 252.182 123.338Z" fill="#CBD5E1"/>
<path fill-rule="evenodd" clip-rule="evenodd" d="M241.058 144.925C240.329 144.541 240.048 143.629 240.43 142.888C241.092 141.603 241.647 140.26 242.237 138.831C242.355 138.548 242.473 138.261 242.594 137.971C243.313 136.245 244.108 134.427 245.176 132.661C245.607 131.948 246.524 131.723 247.225 132.157C247.925 132.591 248.143 133.521 247.712 134.233C246.769 135.793 246.047 137.432 245.336 139.137C245.223 139.408 245.11 139.682 244.997 139.957C244.406 141.387 243.794 142.869 243.068 144.279C242.686 145.02 241.786 145.309 241.058 144.925Z" fill="#CBD5E1"/>
<path fill-rule="evenodd" clip-rule="evenodd" d="M236.822 176.613C236.011 176.75 235.246 176.193 235.115 175.37C234.873 173.854 234.862 171.716 234.861 169.656C234.861 169.508 234.861 169.361 234.861 169.213C234.861 167.231 234.86 165.29 234.716 163.723C234.64 162.893 235.241 162.154 236.06 162.072C236.879 161.991 237.605 162.598 237.681 163.429C237.839 165.144 237.839 167.224 237.839 169.161C237.839 169.323 237.839 169.483 237.839 169.641C237.84 171.784 237.859 173.649 238.054 174.875C238.186 175.698 237.634 176.476 236.822 176.613Z" fill="#CBD5E1"/>
<path fill-rule="evenodd" clip-rule="evenodd" d="M323.585 52.8886C323.207 53.4215 322.745 53.9862 321.988 54.5603L316.01 59.0919C315.35 59.5923 314.417 59.4567 313.927 58.7889C313.436 58.1212 313.574 57.1742 314.234 56.6737L320.212 52.1421C320.649 51.8109 320.906 51.5029 321.172 51.1286C321.232 51.0446 321.299 50.946 321.373 50.8366C321.612 50.4853 321.928 50.0221 322.318 49.5697C322.926 48.8648 323.411 48.0058 323.942 46.9935C324.01 46.8627 324.08 46.7285 324.151 46.5917C324.604 45.7198 325.112 44.7417 325.731 43.8604C326.21 43.1796 327.14 43.019 327.808 43.5015C328.477 43.9841 328.632 44.9272 328.153 45.608C327.66 46.3092 327.256 47.0859 326.796 47.9701C326.722 48.1116 326.647 48.2559 326.57 48.403C326.036 49.4215 325.413 50.5599 324.555 51.5544C324.287 51.8657 324.114 52.1196 323.903 52.4294C323.809 52.5679 323.707 52.7176 323.585 52.8886Z" fill="#CBD5E1"/>
<path d="M344.901 10.2706L345.043 9.59087C345.261 8.55364 345.125 7.49704 344.747 6.52694L346.59 5.62302C347.138 5.35426 347.265 4.74617 346.875 4.26366C346.492 3.74544 345.772 3.55267 345.267 3.83275L343.673 4.61456C342.633 3.39141 341.145 2.38836 339.367 1.91212C337.59 1.43587 335.862 1.57735 334.44 2.17854L333.291 0.623908C332.908 0.105682 332.188 -0.08708 331.683 0.192999C331.135 0.461755 331.007 1.06985 331.398 1.55235L332.686 3.29534C331.956 4.00646 331.415 4.88142 331.205 5.88294L331.062 6.56264C326.057 6.77066 322.458 9.0173 321.655 12.8448C321.266 14.705 321.951 16.5511 323.549 17.8857C324.004 18.2722 324.482 18.5513 325.009 18.806L324.664 20.4516C323.81 24.5294 326.475 28.8706 330.816 30.9781L331.685 33.44C331.974 34.1972 333.074 34.492 333.632 33.9617L335.386 32.2027C340.102 32.5218 344.2 30.0308 345.062 25.917L345.407 24.2715C345.98 24.3116 346.567 24.2801 347.078 24.1902C349.035 23.8079 350.381 22.5063 350.771 20.6462C351.616 16.8303 349.333 13.0071 344.901 10.2706ZM326.953 23.1804C326.862 22.5513 326.862 21.9092 326.99 21.3011L342.774 25.5307C342.605 26.1274 342.392 26.7128 342.061 27.2285L326.953 23.1804ZM338.912 29.6715C337.355 30.2744 335.45 30.4063 333.504 29.8848C331.557 29.3631 329.907 28.2788 328.755 26.9501L338.912 29.6715ZM331.451 19.2096C333.51 18.5523 335.224 17.1983 336.578 15.2187C337.002 17.6746 337.996 19.7546 339.576 21.3868L331.451 19.2096ZM323.983 13.4684C324.718 9.96291 328.931 7.3514 336.658 9.08181C335.051 15.6785 331.298 17.1662 329.709 17.4961C327.986 17.8279 326.228 17.4702 325.086 16.522C324.141 15.7018 323.743 14.6132 323.983 13.4684ZM346.33 22.2141C344.933 22.482 343.171 21.9341 341.812 20.7389C340.523 19.6381 337.76 16.404 338.935 9.72969C346.528 12.104 349.255 16.5751 348.52 20.0807C348.288 21.19 347.501 21.9611 346.33 22.2141Z" fill="#CBD5E1"/>
</svg>
