<svg width="558" height="464" viewBox="0 0 558 464" fill="none" xmlns="http://www.w3.org/2000/svg">
<path d="M409.71 219.222C407.324 190.316 410.598 185.868 414.996 178.595C419.395 171.322 427.155 167.225 433.306 165.711" stroke="#CBD5E1" stroke-width="3" stroke-linecap="round"/>
<path d="M413.599 235.013C415.121 241.193 426.483 253.323 436.752 259.533C452.154 268.847 461.453 270.381 465.089 272.58" stroke="#CBD5E1" stroke-width="3" stroke-linecap="round"/>
<path d="M475.733 277.384C482.873 281.702 489.562 283.847 498.03 281.887C500.536 281.307 502.75 281.011 505.176 280.149C506.349 279.733 508.206 278.846 509.338 279.102" stroke="#CBD5E1" stroke-width="3" stroke-linecap="round"/>
<path d="M523.191 275.29C530.111 275.143 533.969 271.291 539.25 267.359C541.929 265.365 545.783 263.393 547.533 260.5" stroke="#CBD5E1" stroke-width="3" stroke-linecap="round"/>
<path d="M450.116 255.981C456.831 254.304 460.564 249.972 464.843 244.967C467.013 242.429 473.022 235.306 474.834 232.311" stroke="#CBD5E1" stroke-width="3" stroke-linecap="round"/>
<path d="M448.774 164.297C453.774 164.4 457.806 164.27 462.404 166.049C465.871 167.391 469.133 169.271 472.197 171.405" stroke="#CBD5E1" stroke-width="3" stroke-linecap="round"/>
<path d="M485.054 182.99C487.249 187.485 489.214 191.008 489.677 195.939C490.027 199.656 490.358 206.641 483.113 218.62" stroke="#CBD5E1" stroke-width="3" stroke-linecap="round"/>
<path d="M147.023 247.807L169.167 261.199" stroke="#CBD5E1" stroke-width="3" stroke-linecap="round"/>
<path d="M205.653 273.958C212.79 278.274 219.05 282.793 227.125 284.616" stroke="#CBD5E1" stroke-width="3" stroke-linecap="round"/>
<path d="M252.36 292.898C264.502 300.241 269.028 300.491 282.032 301.536" stroke="#CBD5E1" stroke-width="3" stroke-linecap="round"/>
<path d="M305.92 304.351C312.954 305.42 319.778 304.572 326.402 305.105" stroke="#CBD5E1" stroke-width="3" stroke-linecap="round"/>
<path d="M364.315 300.116C370.152 296.948 379.41 293.743 383.807 290.966" stroke="#CBD5E1" stroke-width="3" stroke-linecap="round"/>
<path d="M399.892 279.756C405.29 275.789 418.566 264.288 425.208 264.823" stroke="#CBD5E1" stroke-width="3" stroke-linecap="round"/>
<path d="M130.694 239.957C126.777 237.587 122.859 235.218 118.941 232.849C116.594 231.429 114.995 231.624 112.606 230.819C108.718 229.507 104.289 229.882 100.291 228.979" stroke="#CBD5E1" stroke-width="3" stroke-linecap="round"/>
<path d="M77.4567 229.986C71.243 227.909 68.7054 231.962 63.4073 233.992C60.5493 235.087 56.5381 237.013 54.9999 239.557" stroke="#CBD5E1" stroke-width="3" stroke-linecap="round"/>
<path d="M9.02968 263.48L8.17502 264.096C6.87081 265.037 5.91606 266.273 5.30376 267.605L2.43851 267.14C1.58661 267.002 0.821998 267.554 0.729258 268.374C0.591604 269.225 1.14349 269.99 1.96297 270.084L4.44064 270.485C4.25777 272.601 4.77207 274.83 6.13559 276.72C7.4991 278.61 9.45254 279.801 11.5633 280.262L11.1503 282.818C11.0127 283.67 11.5645 284.435 12.384 284.528C13.2359 284.666 14.0005 284.115 14.0933 283.295L14.5563 280.43C16.0579 280.236 17.532 279.72 18.7913 278.812L19.6459 278.195C25.0937 281.859 31.1892 282.251 36.002 278.779C38.3409 277.092 39.5408 274.584 39.2566 271.915C39.1821 271.148 38.9721 270.478 38.6851 269.796L40.7543 268.303C45.8818 264.604 47.6025 257.889 45.2533 252.263L46.9006 248.954C47.3853 247.92 46.5413 246.75 45.4071 246.883L41.7471 247.403C37.1488 243.399 30.2789 242.882 25.1063 246.613L23.0372 248.106C22.4801 247.618 21.8333 247.196 21.2064 246.896C18.7633 245.784 16.0053 246.132 13.6663 247.819C8.82095 251.246 7.23772 257.109 9.02942 263.479L9.02968 263.48ZM41.195 263.606C40.6376 264.35 39.9704 265.037 39.2058 265.589L27.0965 248.804C27.8934 248.297 28.723 247.835 29.6051 247.541L41.195 263.606ZM35.4335 247.373C37.687 247.937 39.8151 249.275 41.3083 251.345C42.8018 253.415 43.4007 255.857 43.2249 258.173L35.4335 247.373ZM32.3707 264.362C29.5354 263.465 26.3376 263.583 22.8671 264.649C24.9738 261.692 26.0942 258.695 26.1373 255.721L32.3707 264.362ZM34.2159 276.304C29.8082 279.484 22.693 279.006 16.4122 271.154C24.9406 265.343 30.409 266.667 32.4123 267.548C34.5581 268.531 36.0241 270.279 36.2335 272.18C36.3702 273.792 35.6554 275.266 34.2159 276.304L34.2159 276.304ZM19.9359 249.59C21.6745 250.389 22.9479 252.344 23.1271 254.678C23.3314 256.857 22.8625 262.463 14.7039 268.691C9.23257 260.254 11.0234 253.352 15.4313 250.172C16.8262 249.166 18.45 248.952 19.9361 249.59L19.9359 249.59Z" fill="#CBD5E1"/>
</svg>
