<svg width="835" height="97" viewBox="0 0 835 97" fill="none" xmlns="http://www.w3.org/2000/svg">
<path fill-rule="evenodd" clip-rule="evenodd" d="M229.739 36.8419C230.09 36.0916 230.983 35.7681 231.733 36.1193L255.172 47.0911C255.922 47.4423 256.245 48.3353 255.894 49.0856C255.543 49.8359 254.65 50.1594 253.9 49.8081L230.462 38.8364C229.711 38.4851 229.388 37.5922 229.739 36.8419Z" fill="#CBD5E1"/>
<path fill-rule="evenodd" clip-rule="evenodd" d="M316.136 65.7723C316.04 66.5951 315.296 67.1844 314.473 67.0885C307.322 66.2547 301.246 63.3142 295.106 60.3433C293.92 59.7691 292.731 59.1937 291.531 58.6322C290.781 58.281 290.458 57.388 290.809 56.6377C291.16 55.8875 292.053 55.5639 292.803 55.9152C294.076 56.5109 295.313 57.1083 296.528 57.6947C302.662 60.6569 308.216 63.3387 314.82 64.1087C315.643 64.2046 316.232 64.9494 316.136 65.7723Z" fill="#CBD5E1"/>
<path fill-rule="evenodd" clip-rule="evenodd" d="M372.536 76.5709C372.557 77.399 371.903 78.0877 371.075 78.1091C370.82 78.1157 370.568 78.1223 370.318 78.1288C364.242 78.287 359.882 78.4006 355.534 77.7516C350.966 77.0697 346.474 75.5599 339.981 72.5201C339.23 72.1689 338.907 71.276 339.258 70.5257C339.609 69.7754 340.502 69.4519 341.252 69.8031C347.611 72.7795 351.808 74.1621 355.977 74.7844C360.06 75.3939 364.174 75.2872 370.406 75.1255C370.601 75.1204 370.798 75.1153 370.998 75.1101C371.826 75.0887 372.515 75.7427 372.536 76.5709Z" fill="#CBD5E1"/>
<path fill-rule="evenodd" clip-rule="evenodd" d="M417.035 75.421C417.056 76.2492 416.402 76.9379 415.574 76.9593C412.867 77.0292 410.155 77.336 407.332 77.6554C406.776 77.7183 406.216 77.7818 405.65 77.8439C402.247 78.2182 398.699 78.5418 395.022 78.3771C394.194 78.34 393.553 77.6391 393.59 76.8115C393.627 75.9839 394.328 75.343 395.156 75.3801C398.587 75.5338 401.94 75.2338 405.322 74.8619C405.867 74.8021 406.413 74.7402 406.96 74.6782C409.783 74.3583 412.647 74.0339 415.496 73.9603C416.325 73.9389 417.013 74.5929 417.035 75.421Z" fill="#CBD5E1"/>
<path fill-rule="evenodd" clip-rule="evenodd" d="M472.297 54.3911C472.811 55.0407 472.701 55.9841 472.051 56.4981C469.899 58.2006 466.546 60.1105 463.17 62.0074C462.925 62.145 462.68 62.2826 462.435 62.4203C459.236 64.2158 456.032 66.0145 453.558 67.7194C452.876 68.1895 451.942 68.0176 451.472 67.3354C451.002 66.6533 451.174 65.7192 451.856 65.2491C454.45 63.4615 457.773 61.5962 460.934 59.8225C461.19 59.6784 461.446 59.5349 461.7 59.3921C465.145 57.4565 468.264 55.6694 470.19 54.1454C470.84 53.6314 471.783 53.7414 472.297 54.3911Z" fill="#CBD5E1"/>
<path fill-rule="evenodd" clip-rule="evenodd" d="M511.02 24.9022C511.041 25.7303 510.387 26.419 509.559 26.4404C508.3 26.473 506.581 27.1341 504.499 28.3994C502.46 29.6383 500.252 31.3428 498.056 33.2178C495.138 35.7089 492.38 38.372 490.096 40.5777C488.899 41.734 487.832 42.7646 486.94 43.579C486.328 44.1375 485.379 44.0944 484.82 43.4825C484.262 42.8707 484.305 41.922 484.917 41.3634C485.698 40.6498 486.705 39.6787 487.863 38.5609C490.193 36.3129 493.138 33.4713 496.108 30.9361C498.359 29.0145 500.705 27.194 502.941 25.8356C505.133 24.5035 507.411 23.4949 509.482 23.4414C510.31 23.42 510.999 24.074 511.02 24.9022Z" fill="#CBD5E1"/>
<path fill-rule="evenodd" clip-rule="evenodd" d="M547.859 18.1681C541.035 14.9734 533.19 14.8489 525.551 16.2142C524.735 16.3599 523.956 15.8169 523.81 15.0014C523.665 14.1859 524.208 13.4067 525.023 13.2609C532.993 11.8367 541.534 11.8946 549.131 15.4511C549.881 15.8023 550.205 16.6953 549.854 17.4456C549.503 18.1959 548.61 18.5194 547.859 18.1681Z" fill="#CBD5E1"/>
<path fill-rule="evenodd" clip-rule="evenodd" d="M568.542 17.4018C568.893 16.6515 569.786 16.328 570.536 16.6792L592.172 26.807C592.922 27.1582 593.245 28.0512 592.894 28.8015C592.543 29.5518 591.65 29.8753 590.9 29.5241L569.265 19.3963C568.514 19.045 568.191 18.1521 568.542 17.4018Z" fill="#CBD5E1"/>
<path fill-rule="evenodd" clip-rule="evenodd" d="M605.365 36.0514C605.817 35.3575 606.746 35.1618 607.44 35.6143L621.834 45.0006C622.527 45.4531 622.723 46.3825 622.271 47.0764C621.818 47.7703 620.889 47.966 620.195 47.5135L605.802 38.1272C605.108 37.6747 604.912 36.7453 605.365 36.0514Z" fill="#CBD5E1"/>
<path fill-rule="evenodd" clip-rule="evenodd" d="M198.505 23.1839C199.614 23.3191 200.795 23.5492 202.226 24.2192L214.666 30.0424C215.416 30.3936 215.739 31.2866 215.388 32.0369C215.037 32.7872 214.144 33.1107 213.394 32.7594L200.954 26.9362C199.9 26.443 199.054 26.273 198.142 26.1618C197.918 26.1346 197.676 26.1101 197.417 26.0839C196.651 26.0064 195.74 25.9142 194.749 25.6937C192.939 25.2904 191.006 25.2706 188.908 25.31C188.63 25.3153 188.348 25.3216 188.063 25.328C186.257 25.3686 184.33 25.4119 182.461 25.194C181.638 25.0981 181.049 24.3532 181.145 23.5304C181.241 22.7075 181.986 22.1183 182.809 22.2142C184.454 22.406 186.149 22.3688 187.97 22.329C188.261 22.3226 188.555 22.3162 188.852 22.3106C190.955 22.271 193.207 22.2767 195.402 22.7654C196.205 22.9444 196.857 23.0103 197.572 23.0827C197.867 23.1125 198.173 23.1435 198.505 23.1839Z" fill="#CBD5E1"/>
<path fill-rule="evenodd" clip-rule="evenodd" d="M161.5 27.4462C161.322 28.2553 160.522 28.767 159.713 28.589C156.968 27.9851 155.242 28.5815 153.552 29.6365C152.852 30.074 152.186 30.5726 151.435 31.1342C151.209 31.3038 150.974 31.4792 150.729 31.6603C149.702 32.4188 148.545 33.2292 147.171 33.9306C145.852 34.6037 144.309 35.4911 142.961 36.514C141.583 37.5585 140.553 38.6379 140.077 39.6547C139.726 40.405 138.833 40.7285 138.082 40.3772C137.332 40.026 137.009 39.1331 137.36 38.3828C138.144 36.7075 139.636 35.2705 141.148 34.1238C142.688 32.9554 144.4 31.9768 145.807 31.2585C146.96 30.6702 147.96 29.9761 148.947 29.2472C149.153 29.0948 149.362 28.9382 149.574 28.7798C150.343 28.2037 151.145 27.6032 151.963 27.0921C154.184 25.7048 156.705 24.8556 160.358 25.659C161.167 25.837 161.678 26.6372 161.5 27.4462Z" fill="#CBD5E1"/>
<path fill-rule="evenodd" clip-rule="evenodd" d="M124.538 47.2811C124.996 47.9715 124.807 48.9024 124.117 49.3601C122.16 50.6571 120.147 51.6776 118.229 52.6499C117.991 52.7706 117.754 52.8905 117.519 53.0102C115.365 54.1078 113.327 55.1937 111.403 56.6513C110.178 57.5803 108.748 57.9606 107.637 58.2561C107.504 58.2916 107.375 58.3258 107.252 58.3596C106.008 58.701 105.113 59.0294 104.392 59.7884C103.822 60.3891 102.872 60.4136 102.272 59.8431C101.671 59.2727 101.646 58.3232 102.217 57.7225C103.55 56.3191 105.163 55.8222 106.458 55.4666C106.585 55.4318 106.708 55.3983 106.828 55.3658C108.018 55.0425 108.862 54.8133 109.591 54.2603C111.745 52.6284 113.992 51.4405 116.158 50.337C116.397 50.2153 116.634 50.0948 116.871 49.9749C118.805 48.9936 120.658 48.0539 122.459 46.8596C123.15 46.4019 124.081 46.5906 124.538 47.2811Z" fill="#CBD5E1"/>
<path fill-rule="evenodd" clip-rule="evenodd" d="M89.7919 65.9944C89.7375 66.821 89.0233 67.447 88.1966 67.3926C85.997 67.2478 84.8046 67.2987 83.7399 67.5405C82.64 67.7903 81.5986 68.2567 79.6572 69.1339C78.5253 69.6453 77.1756 69.6887 76.1901 69.7204C76.0756 69.724 75.966 69.7276 75.8623 69.7317C74.6622 69.7789 73.9886 69.8845 73.5568 70.1888C72.5815 70.876 71.4315 71.236 70.3326 71.454C69.2314 71.6724 68.0573 71.7698 66.9982 71.8563L66.9549 71.8598C65.875 71.948 64.9215 72.0259 64.0887 72.1864C63.2349 72.351 62.6904 72.5721 62.3633 72.8309C61.7136 73.3449 60.7702 73.2349 60.2562 72.5852C59.7422 71.9355 59.8522 70.9922 60.5019 70.4782C61.3885 69.7767 62.4928 69.4388 63.5209 69.2406C64.5177 69.0485 65.6151 68.959 66.629 68.8764C66.6708 68.873 66.7125 68.8696 66.754 68.8662C67.8409 68.7774 68.8439 68.6908 69.749 68.5113C70.6563 68.3314 71.3417 68.0797 71.8288 67.7364C73.0883 66.8489 74.6585 66.7767 75.7443 66.734C75.8245 66.7308 75.9027 66.7278 75.9791 66.7249C77.1312 66.6805 77.8634 66.6523 78.422 66.4C78.4758 66.3756 78.5292 66.3515 78.5822 66.3276C80.3531 65.5272 81.6603 64.9364 83.0755 64.615C84.5683 64.276 86.1065 64.2485 88.3937 64.3991C89.2204 64.4535 89.8464 65.1678 89.7919 65.9944Z" fill="#CBD5E1"/>
<path fill-rule="evenodd" clip-rule="evenodd" d="M807.822 15.3684C808.174 14.6181 809.067 14.2946 809.817 14.6458L833.255 25.6176C834.005 25.9688 834.329 26.8618 833.978 27.6121C833.626 28.3624 832.733 28.6859 831.983 28.3346L808.545 17.3629C807.795 17.0116 807.471 16.1187 807.822 15.3684Z" fill="#CBD5E1"/>
<path fill-rule="evenodd" clip-rule="evenodd" d="M776.588 1.71039C777.697 1.84558 778.878 2.07567 780.309 2.74568L792.749 8.56892C793.499 8.92014 793.823 9.81309 793.471 10.5634C793.12 11.3137 792.227 11.6372 791.477 11.286L779.037 5.46272C777.984 4.9695 777.137 4.79946 776.225 4.68836C776.002 4.66112 775.759 4.6366 775.501 4.61042C774.734 4.53287 773.823 4.44075 772.833 4.22017C771.022 3.81687 769.089 3.79712 766.991 3.83655C766.713 3.84178 766.431 3.84811 766.146 3.85451C764.34 3.89508 762.413 3.93837 760.545 3.72052C759.722 3.62458 759.132 2.87976 759.228 2.0569C759.324 1.23405 760.069 0.644767 760.892 0.740703C762.537 0.932501 764.233 0.895351 766.054 0.855463C766.344 0.849097 766.638 0.842661 766.935 0.837075C769.039 0.797548 771.291 0.803193 773.485 1.29192C774.289 1.4709 774.941 1.53684 775.655 1.60917C775.951 1.63902 776.256 1.66996 776.588 1.71039Z" fill="#CBD5E1"/>
<path fill-rule="evenodd" clip-rule="evenodd" d="M739.584 5.97275C739.406 6.78184 738.606 7.29347 737.797 7.11551C735.051 6.51162 733.325 7.10801 731.636 8.16303C730.935 8.60046 730.269 9.09909 729.519 9.66073C729.292 9.83033 729.058 10.0057 728.812 10.1868C727.785 10.9454 726.629 11.7557 725.254 12.4571C723.936 13.1302 722.392 14.0176 721.044 15.0405C719.667 16.085 718.636 17.1644 718.16 18.1812C717.809 18.9315 716.916 19.255 716.166 18.9037C715.415 18.5525 715.092 17.6596 715.443 16.9093C716.227 15.234 717.719 13.797 719.231 12.6503C720.771 11.4819 722.483 10.5033 723.891 9.78501C725.043 9.19675 726.043 8.50257 727.03 7.77367C727.236 7.62131 727.445 7.46474 727.657 7.30632C728.426 6.73021 729.228 6.12967 730.046 5.61858C732.268 4.2313 734.788 3.38206 738.441 4.18554C739.25 4.3635 739.762 5.16366 739.584 5.97275Z" fill="#CBD5E1"/>
<path fill-rule="evenodd" clip-rule="evenodd" d="M702.622 25.8075C703.079 26.498 702.891 27.4288 702.2 27.8866C700.244 29.1836 698.231 30.2041 696.312 31.1764C696.074 31.2971 695.838 31.417 695.603 31.5367C693.448 32.6343 691.41 33.7202 689.487 35.1778C688.261 36.1068 686.831 36.4871 685.721 36.7826C685.587 36.8181 685.459 36.8523 685.335 36.8861C684.092 37.2275 683.196 37.5559 682.476 38.3148C681.905 38.9156 680.956 38.9401 680.355 38.3696C679.754 37.7992 679.73 36.8497 680.3 36.249C681.633 34.8456 683.246 34.3487 684.541 33.9931C684.668 33.9583 684.792 33.9248 684.911 33.8923C686.101 33.569 686.945 33.3398 687.675 32.7868C689.828 31.1549 692.075 29.967 694.241 28.8635C694.48 28.7418 694.718 28.6213 694.954 28.5014C696.889 27.5201 698.741 26.5804 700.543 25.3861C701.233 24.9284 702.164 25.1171 702.622 25.8075Z" fill="#CBD5E1"/>
<path fill-rule="evenodd" clip-rule="evenodd" d="M667.875 44.5209C667.821 45.3475 667.107 45.9735 666.28 45.9191C664.08 45.7743 662.888 45.8252 661.823 46.067C660.723 46.3168 659.682 46.7832 657.741 47.6604C656.609 48.1718 655.259 48.2152 654.273 48.2469C654.159 48.2506 654.049 48.2541 653.946 48.2582C652.746 48.3054 652.072 48.411 651.64 48.7152C650.665 49.4025 649.515 49.7625 648.416 49.9805C647.315 50.1989 646.141 50.2963 645.082 50.3828L645.038 50.3863C643.958 50.4745 643.005 50.5524 642.172 50.7129C641.318 50.8775 640.774 51.0986 640.447 51.3574C639.797 51.8714 638.854 51.7614 638.34 51.1117C637.826 50.462 637.936 49.5187 638.585 49.0047C639.472 48.3032 640.576 47.9653 641.604 47.7671C642.601 47.575 643.698 47.4855 644.712 47.4029C644.754 47.3995 644.796 47.3961 644.837 47.3927C645.924 47.3039 646.927 47.2173 647.832 47.0378C648.74 46.8579 649.425 46.6062 649.912 46.2629C651.172 45.3754 652.742 45.3032 653.828 45.2605C653.908 45.2573 653.986 45.2543 654.062 45.2514C655.215 45.207 655.947 45.1788 656.505 44.9265C656.559 44.9021 656.613 44.878 656.666 44.8541C658.436 44.0537 659.744 43.4629 661.159 43.1415C662.652 42.8025 664.19 42.775 666.477 42.9256C667.304 42.98 667.93 43.6943 667.875 44.5209Z" fill="#CBD5E1"/>
<path d="M10.45 70.5643L9.40755 70.7189C7.81676 70.9549 6.40054 71.6138 5.24469 72.5146L2.91371 70.7849C2.22066 70.2706 1.28804 70.409 0.828879 71.0941C0.314941 71.7874 0.453337 72.7205 1.13826 73.18L3.15405 74.6754C2.01864 76.4708 1.45053 78.6868 1.79246 80.9921C2.13439 83.2974 3.32164 85.253 4.98401 86.633L3.44224 88.7128C2.9283 89.4061 3.0667 90.3392 3.75162 90.7987C4.44467 91.3129 5.37729 91.1746 5.83645 90.4894L7.56501 88.1576C8.98764 88.676 10.5338 88.8955 12.0699 88.6676L13.1123 88.513C16.2654 94.2719 21.4983 97.4225 27.3686 96.5518C30.2214 96.1286 32.44 94.4532 33.4145 91.9526C33.701 91.2371 33.8226 90.5457 33.8813 89.8079L36.4051 89.4336C42.6593 88.506 47.2747 83.3337 47.7752 77.2573L50.7595 75.0758C51.6654 74.3803 51.4538 72.9534 50.385 72.5508L46.8959 71.3294C44.6533 65.6597 38.7903 62.0418 32.4811 62.9776L29.9573 63.352C29.6869 62.6627 29.3067 61.9901 28.888 61.4352C27.2293 59.3252 24.6203 58.3658 21.7675 58.7889C15.8892 59.604 11.7876 64.0836 10.45 70.5643ZM38.9561 85.4647C38.119 85.8695 37.2108 86.1724 36.2782 86.3107L33.2415 65.8376C34.1822 65.754 35.1311 65.7255 36.0497 65.8699L38.9561 85.4647ZM41.3029 68.4002C43.0448 69.9371 44.3193 72.104 44.6938 74.6286C45.0683 77.1536 44.4777 79.5972 43.2567 81.5731L41.3029 68.4002ZM30.7724 82.0787C28.6666 79.9792 25.7728 78.6131 22.2005 77.9648C25.4309 76.3074 27.804 74.1606 29.2093 71.5399L30.7724 82.0787ZM26.9204 93.5326C21.5441 94.33 15.4452 90.6346 13.4779 80.7733C23.7228 79.5343 27.9706 83.2238 29.3446 84.9271C30.7981 86.7869 31.2963 89.0131 30.608 90.798C29.9884 92.2923 28.6762 93.2722 26.9204 93.5326ZM26.5209 63.2442C27.6977 64.7526 27.9298 67.0741 27.0159 69.2291C26.1956 71.2579 23.2015 76.0215 13.0929 77.8014C12.113 67.7935 16.8768 62.4871 22.2532 61.6896C23.9546 61.4373 25.4946 61.9941 26.5209 63.2442Z" fill="#CBD5E1"/>
</svg>
