<svg width="303" height="501" viewBox="0 0 303 501" fill="none" xmlns="http://www.w3.org/2000/svg">
<path d="M152.155 201.263C166.031 225.455 171 226.982 178.382 230.056C185.764 233.13 194.034 231.676 199.646 229.16" stroke="#CBD5E1" stroke-width="3" stroke-linecap="round"/>
<path d="M146.588 186.488C144.409 180.706 146.651 164.308 151.263 153.23C158.182 136.613 164.585 129.8 166.219 125.877" stroke="#CBD5E1" stroke-width="3" stroke-linecap="round"/>
<path d="M171.888 115.68C175.095 107.976 179.134 102.256 186.792 98.6935C189.059 97.6392 190.943 96.5382 193.3 95.7538C194.44 95.3746 196.368 94.9524 197.109 94.0693" stroke="#CBD5E1" stroke-width="3" stroke-linecap="round"/>
<path d="M209.967 88.7185C215.433 84.6628 220.532 85.369 226.783 85.2806C229.953 85.2358 234.027 84.4645 236.963 85.6871" stroke="#CBD5E1" stroke-width="3" stroke-linecap="round"/>
<path d="M163.598 147.97C169.738 145.242 175.001 146.401 181.055 147.761C184.126 148.452 192.68 150.435 195.72 151.701" stroke="#CBD5E1" stroke-width="3" stroke-linecap="round"/>
<path d="M212.454 220.949C216.29 217.854 219.5 215.525 222.11 211.353C224.079 208.207 225.594 204.761 226.817 201.234" stroke="#CBD5E1" stroke-width="3" stroke-linecap="round"/>
<path d="M230.519 184.363C229.781 179.503 229.393 175.544 227.07 171.384C225.319 168.247 221.775 162.549 209.616 157.487" stroke="#CBD5E1" stroke-width="3" stroke-linecap="round"/>
<path d="M-10.4177 238.123C-4.9633 225.023 -1.57614 222.098 7.97578 213.436" stroke="#CBD5E1" stroke-width="3" stroke-linecap="round"/>
<path d="M25.0375 196.82C29.9307 191.738 35.7033 188.292 40.5689 183.88" stroke="#CBD5E1" stroke-width="3" stroke-linecap="round"/>
<path d="M72.7939 164.951C79.0613 163.927 88.0119 160.869 92.9454 160.404" stroke="#CBD5E1" stroke-width="3" stroke-linecap="round"/>
<path d="M111.567 159.531C117.927 159.4 134.52 160.449 139.399 156.025" stroke="#CBD5E1" stroke-width="3" stroke-linecap="round"/>
<path d="M289.141 103.442L290.174 103.648C291.752 103.962 293.307 103.818 294.699 103.36L296.311 105.773C296.79 106.491 297.715 106.675 298.378 106.185C299.095 105.705 299.28 104.78 298.789 104.116L297.395 102.029C299.069 100.721 300.35 98.8263 300.805 96.5406C301.26 94.2549 300.801 92.0136 299.7 90.1543L301.853 88.7154C302.57 88.2357 302.754 87.3106 302.264 86.6472C301.785 85.9295 300.86 85.7456 300.197 86.2361L297.784 87.8493C296.619 86.882 295.237 86.1544 293.714 85.8515L292.681 85.6459C291.652 79.1614 287.786 74.4322 281.966 73.2745C279.137 72.7118 276.484 73.542 274.724 75.5681C274.213 76.1453 273.866 76.7553 273.562 77.4301L271.059 76.9324C264.858 75.699 258.77 79.0141 256.252 84.5667L252.707 85.6154C251.62 85.965 251.339 87.3798 252.209 88.119L255.083 90.4443C255.284 96.5382 259.586 101.92 265.842 103.164L268.344 103.662C268.366 104.402 268.498 105.163 268.705 105.827C269.556 108.372 271.689 110.154 274.518 110.717C280.327 111.93 285.698 109.094 289.141 103.443L289.141 103.442ZM267.32 79.8099C268.245 79.7109 269.202 79.7316 270.127 79.9155L266.089 100.215C265.175 99.9768 264.272 99.6839 263.456 99.2386L267.32 79.8099ZM259.362 95.0865C258.24 93.0526 257.77 90.583 258.268 88.0798C258.766 85.5762 260.145 83.4745 261.96 82.0253L259.362 95.0865ZM273.885 85.7549C275.161 88.4411 277.425 90.7022 280.57 92.516C276.97 92.9883 274.013 94.2102 271.807 96.2043L273.885 85.7549ZM281.37 76.2681C286.701 77.3285 291.199 82.8625 289.729 92.8101C279.666 90.5254 276.909 85.6207 276.189 83.554C275.447 81.3132 275.728 79.0494 276.977 77.6006C278.064 76.4024 279.63 75.9218 281.371 76.2681L281.37 76.2681ZM271.543 104.921C270.943 103.104 271.507 100.84 273.093 99.1189C274.549 97.485 278.973 94.0086 289.09 95.738C286.642 105.491 280.369 108.883 275.038 107.822C273.351 107.487 272.088 106.443 271.543 104.921L271.543 104.921Z" fill="#CBD5E1"/>
</svg>
