<svg width="1235" height="573" viewBox="0 0 1235 573" fill="none" xmlns="http://www.w3.org/2000/svg">
<path fill-rule="evenodd" clip-rule="evenodd" d="M1043.91 119.358C1043.84 120.183 1043.11 120.793 1042.28 120.72L1016.51 118.436C1015.68 118.363 1015.07 117.635 1015.14 116.809C1015.22 115.984 1015.95 115.375 1016.77 115.448L1042.55 117.731C1043.37 117.804 1043.98 118.533 1043.91 119.358Z" fill="#CBD5E1"/>
<path fill-rule="evenodd" clip-rule="evenodd" d="M952.83 121.757C952.639 120.951 953.137 120.143 953.943 119.951C960.947 118.286 967.663 118.968 974.448 119.658C975.759 119.791 977.074 119.925 978.393 120.041C979.218 120.115 979.828 120.843 979.755 121.668C979.681 122.493 978.953 123.103 978.128 123.03C976.728 122.906 975.361 122.768 974.019 122.633C967.241 121.95 961.105 121.332 954.636 122.87C953.83 123.061 953.022 122.563 952.83 121.757Z" fill="#CBD5E1"/>
<path fill-rule="evenodd" clip-rule="evenodd" d="M896.142 130.922C895.839 130.151 896.217 129.28 896.988 128.977C897.226 128.883 897.461 128.79 897.693 128.699C903.347 126.47 907.405 124.87 911.712 123.991C916.238 123.068 920.975 122.949 928.117 123.581C928.942 123.654 929.552 124.383 929.479 125.208C929.406 126.033 928.677 126.643 927.852 126.57C920.859 125.95 916.442 126.088 912.312 126.931C908.267 127.756 904.438 129.265 898.639 131.551C898.457 131.622 898.273 131.695 898.088 131.768C897.317 132.071 896.446 131.693 896.142 130.922Z" fill="#CBD5E1"/>
<path fill-rule="evenodd" clip-rule="evenodd" d="M854.727 147.238C854.423 146.467 854.802 145.596 855.573 145.293C858.092 144.3 860.535 143.083 863.078 141.817C863.579 141.567 864.083 141.316 864.594 141.064C867.663 139.547 870.886 138.028 874.397 136.924C875.187 136.675 876.03 137.114 876.278 137.905C876.527 138.695 876.087 139.537 875.297 139.786C872.021 140.816 868.973 142.246 865.923 143.753C865.432 143.996 864.94 144.241 864.447 144.487C861.904 145.754 859.324 147.039 856.672 148.084C855.901 148.388 855.03 148.009 854.727 147.238Z" fill="#CBD5E1"/>
<path fill-rule="evenodd" clip-rule="evenodd" d="M810.005 185.918C809.3 185.484 809.08 184.56 809.514 183.854C810.953 181.518 813.451 178.575 815.973 175.637C816.155 175.424 816.339 175.211 816.522 174.998C818.912 172.215 821.307 169.428 823.048 166.979C823.528 166.304 824.464 166.146 825.139 166.626C825.815 167.106 825.973 168.042 825.493 168.718C823.668 171.285 821.184 174.176 818.822 176.924C818.63 177.148 818.439 177.37 818.249 177.591C815.675 180.589 813.357 183.336 812.069 185.427C811.634 186.133 810.71 186.352 810.005 185.918Z" fill="#CBD5E1"/>
<path fill-rule="evenodd" clip-rule="evenodd" d="M783.719 226.883C783.415 226.112 783.794 225.241 784.565 224.937C785.737 224.476 787.125 223.266 788.649 221.364C790.14 219.502 791.631 217.145 793.053 214.631C794.941 211.291 796.621 207.845 798.011 204.991C798.74 203.494 799.39 202.161 799.949 201.09C800.333 200.356 801.239 200.072 801.973 200.455C802.708 200.839 802.992 201.745 802.608 202.479C802.118 203.417 801.505 204.674 800.799 206.121C799.38 209.031 797.586 212.709 795.664 216.108C794.207 218.684 792.626 221.198 790.99 223.24C789.386 225.242 787.592 226.969 785.664 227.729C784.894 228.032 784.023 227.654 783.719 226.883Z" fill="#CBD5E1"/>
<path fill-rule="evenodd" clip-rule="evenodd" d="M751.412 245.823C758.918 246.488 766.331 243.919 773.041 240.021C773.757 239.605 774.675 239.848 775.092 240.564C775.508 241.281 775.264 242.199 774.548 242.615C767.548 246.682 759.503 249.552 751.147 248.811C750.322 248.738 749.712 248.01 749.786 247.185C749.859 246.36 750.587 245.75 751.412 245.823Z" fill="#CBD5E1"/>
<path fill-rule="evenodd" clip-rule="evenodd" d="M732.242 253.625C732.169 254.45 731.44 255.06 730.615 254.986L706.82 252.878C705.995 252.805 705.385 252.077 705.458 251.252C705.531 250.427 706.26 249.817 707.085 249.89L730.88 251.998C731.705 252.071 732.315 252.8 732.242 253.625Z" fill="#CBD5E1"/>
<path fill-rule="evenodd" clip-rule="evenodd" d="M1077.93 121.496C1076.85 121.749 1075.66 121.937 1074.08 121.797L1060.4 120.585C1059.58 120.512 1058.97 119.784 1059.04 118.959C1059.11 118.134 1059.84 117.524 1060.67 117.597L1074.35 118.809C1075.51 118.912 1076.36 118.782 1077.26 118.574C1077.47 118.523 1077.71 118.463 1077.96 118.399C1078.71 118.209 1079.6 117.984 1080.6 117.852C1082.44 117.611 1084.26 116.968 1086.22 116.213C1086.48 116.113 1086.74 116.01 1087.01 115.906C1088.69 115.25 1090.49 114.549 1092.32 114.114C1093.13 113.923 1093.93 114.421 1094.13 115.227C1094.32 116.033 1093.82 116.841 1093.01 117.033C1091.4 117.416 1089.82 118.032 1088.12 118.693C1087.85 118.798 1087.58 118.905 1087.3 119.012C1085.34 119.769 1083.22 120.535 1080.99 120.827C1080.18 120.934 1079.54 121.095 1078.84 121.272C1078.56 121.345 1078.26 121.421 1077.93 121.496Z" fill="#CBD5E1"/>
<path fill-rule="evenodd" clip-rule="evenodd" d="M1111.24 104.822C1111.13 104 1111.71 103.246 1112.53 103.136C1115.32 102.763 1116.73 101.612 1117.96 100.042C1118.47 99.3917 1118.92 98.695 1119.44 97.9103C1119.59 97.6734 1119.75 97.4284 1119.92 97.1742C1120.62 96.1099 1121.43 94.9525 1122.49 93.823C1123.49 92.739 1124.64 91.3768 1125.56 89.9541C1126.49 88.5013 1127.09 87.1342 1127.19 86.0159C1127.26 85.1907 1127.99 84.581 1128.82 84.6541C1129.64 84.7272 1130.25 85.4555 1130.18 86.2807C1130.02 88.1232 1129.11 89.9841 1128.08 91.5791C1127.03 93.2043 1125.76 94.7099 1124.68 95.8666C1123.8 96.8139 1123.1 97.8086 1122.42 98.8313C1122.28 99.0451 1122.14 99.2638 1121.99 99.4851C1121.47 100.29 1120.92 101.129 1120.32 101.889C1118.71 103.953 1116.64 105.614 1112.93 106.11C1112.11 106.219 1111.35 105.643 1111.24 104.822Z" fill="#CBD5E1"/>
<path fill-rule="evenodd" clip-rule="evenodd" d="M1135.74 77.8766C1135.07 77.3845 1134.93 76.4454 1135.42 75.7789C1136.82 73.8905 1138.36 72.2423 1139.83 70.6721C1140.01 70.4771 1140.19 70.2834 1140.37 70.0905C1142.02 68.3215 1143.56 66.6034 1144.87 64.5755C1145.7 63.2829 1146.92 62.4362 1147.86 61.7782C1147.97 61.6992 1148.08 61.623 1148.19 61.549C1149.24 60.8024 1149.97 60.1873 1150.38 59.2275C1150.71 58.4678 1151.6 58.1196 1152.36 58.4499C1153.12 58.7802 1153.47 59.6639 1153.14 60.4236C1152.36 62.1985 1151.02 63.2177 1149.92 63.9952C1149.82 64.0715 1149.71 64.1451 1149.61 64.2167C1148.6 64.9278 1147.89 65.4321 1147.39 66.2015C1145.93 68.4721 1144.22 70.3575 1142.57 72.1359C1142.38 72.3321 1142.2 72.5267 1142.02 72.7203C1140.54 74.3046 1139.12 75.8217 1137.84 77.5607C1137.34 78.2271 1136.4 78.3686 1135.74 77.8766Z" fill="#CBD5E1"/>
<path fill-rule="evenodd" clip-rule="evenodd" d="M1158.19 51.5862C1157.96 50.7909 1158.41 49.9582 1159.21 49.7263C1161.32 49.1093 1162.43 48.6532 1163.34 48.0614C1164.29 47.4501 1165.11 46.6553 1166.63 45.1665C1167.52 44.2985 1168.78 43.7956 1169.69 43.4284C1169.8 43.3857 1169.9 43.3449 1170 43.3055C1171.11 42.8503 1171.7 42.5204 1172 42.0867C1172.69 41.107 1173.64 40.375 1174.6 39.794C1175.56 39.2118 1176.63 38.7183 1177.6 38.2744L1177.64 38.2562C1178.62 37.8036 1179.49 37.404 1180.22 36.968C1180.96 36.5211 1181.4 36.1269 1181.62 35.7717C1182.05 35.0664 1182.98 34.8467 1183.68 35.2811C1184.39 35.7156 1184.61 36.6396 1184.17 37.3449C1183.58 38.3076 1182.66 39.0032 1181.76 39.5413C1180.89 40.0632 1179.89 40.5229 1178.96 40.9477C1178.93 40.9652 1178.89 40.9827 1178.85 41.0001C1177.86 41.4556 1176.95 41.8805 1176.16 42.359C1175.37 42.8387 1174.81 43.3098 1174.47 43.7992C1173.59 45.0642 1172.14 45.6697 1171.13 46.0816C1171.06 46.112 1170.99 46.1416 1170.91 46.1706C1169.85 46.6067 1169.17 46.8839 1168.73 47.3123C1168.69 47.3535 1168.65 47.3945 1168.61 47.4351C1167.22 48.7935 1166.19 49.7961 1164.97 50.5827C1163.68 51.4123 1162.25 51.9648 1160.05 52.6064C1159.25 52.8383 1158.42 52.3815 1158.19 51.5862Z" fill="#CBD5E1"/>
<path fill-rule="evenodd" clip-rule="evenodd" d="M508.12 337.462C508.047 338.287 507.319 338.897 506.494 338.823L480.715 336.54C479.89 336.467 479.281 335.738 479.354 334.913C479.427 334.088 480.155 333.478 480.98 333.551L506.758 335.835C507.584 335.908 508.193 336.636 508.12 337.462Z" fill="#CBD5E1"/>
<path fill-rule="evenodd" clip-rule="evenodd" d="M417.039 339.861C416.848 339.055 417.346 338.247 418.152 338.055C425.156 336.39 431.872 337.072 438.657 337.762C439.969 337.895 441.283 338.028 442.602 338.145C443.427 338.218 444.037 338.947 443.964 339.772C443.891 340.597 443.162 341.207 442.337 341.134C440.937 341.01 439.57 340.872 438.229 340.737C431.451 340.054 425.314 339.436 418.846 340.974C418.04 341.165 417.231 340.667 417.039 339.861Z" fill="#CBD5E1"/>
<path fill-rule="evenodd" clip-rule="evenodd" d="M360.351 349.026C360.048 348.255 360.426 347.384 361.197 347.08C361.435 346.987 361.67 346.894 361.902 346.803C367.556 344.574 371.614 342.974 375.921 342.095C380.447 341.172 385.184 341.052 392.326 341.685C393.151 341.758 393.761 342.487 393.688 343.312C393.615 344.137 392.886 344.747 392.061 344.673C385.068 344.054 380.651 344.192 376.521 345.035C372.476 345.86 368.647 347.369 362.848 349.655C362.666 349.726 362.482 349.798 362.297 349.872C361.526 350.175 360.655 349.797 360.351 349.026Z" fill="#CBD5E1"/>
<path fill-rule="evenodd" clip-rule="evenodd" d="M318.936 365.342C318.632 364.571 319.011 363.7 319.782 363.397C322.301 362.404 324.744 361.187 327.287 359.921C327.788 359.671 328.292 359.42 328.802 359.168C331.872 357.651 335.095 356.132 338.606 355.028C339.396 354.779 340.238 355.218 340.487 356.009C340.736 356.799 340.296 357.641 339.506 357.889C336.23 358.92 333.182 360.35 330.132 361.857C329.641 362.1 329.149 362.345 328.656 362.591C326.113 363.858 323.533 365.143 320.881 366.188C320.11 366.491 319.239 366.113 318.936 365.342Z" fill="#CBD5E1"/>
<path fill-rule="evenodd" clip-rule="evenodd" d="M274.214 404.022C273.509 403.588 273.289 402.664 273.723 401.958C275.162 399.622 277.659 396.679 280.182 393.741C280.364 393.528 280.548 393.315 280.731 393.101C283.121 390.319 285.516 387.532 287.257 385.083C287.737 384.408 288.673 384.25 289.348 384.73C290.024 385.21 290.182 386.146 289.702 386.821C287.877 389.389 285.393 392.28 283.031 395.028C282.839 395.251 282.648 395.474 282.458 395.695C279.884 398.693 277.566 401.44 276.278 403.531C275.843 404.237 274.919 404.456 274.214 404.022Z" fill="#CBD5E1"/>
<path fill-rule="evenodd" clip-rule="evenodd" d="M247.928 444.987C247.624 444.216 248.003 443.345 248.774 443.041C249.946 442.58 251.334 441.37 252.858 439.468C254.349 437.606 255.84 435.249 257.262 432.735C259.15 429.395 260.829 425.949 262.22 423.095C262.949 421.598 263.599 420.264 264.158 419.194C264.542 418.46 265.448 418.175 266.182 418.559C266.917 418.943 267.201 419.849 266.817 420.583C266.327 421.521 265.714 422.778 265.008 424.225C263.589 427.135 261.795 430.813 259.873 434.212C258.416 436.788 256.835 439.302 255.199 441.344C253.595 443.346 251.801 445.073 249.873 445.833C249.103 446.136 248.232 445.758 247.928 444.987Z" fill="#CBD5E1"/>
<path fill-rule="evenodd" clip-rule="evenodd" d="M215.621 463.927C223.127 464.592 230.54 462.023 237.25 458.125C237.966 457.709 238.884 457.952 239.301 458.668C239.717 459.385 239.473 460.303 238.757 460.719C231.757 464.786 223.712 467.656 215.356 466.915C214.531 466.842 213.921 466.114 213.994 465.289C214.068 464.464 214.796 463.854 215.621 463.927Z" fill="#CBD5E1"/>
<path fill-rule="evenodd" clip-rule="evenodd" d="M196.449 471.729C196.376 472.554 195.647 473.164 194.822 473.091L171.027 470.983C170.202 470.909 169.592 470.181 169.665 469.356C169.738 468.531 170.467 467.921 171.292 467.994L195.087 470.102C195.912 470.175 196.522 470.904 196.449 471.729Z" fill="#CBD5E1"/>
<path fill-rule="evenodd" clip-rule="evenodd" d="M542.143 339.6C541.054 339.853 539.866 340.041 538.292 339.901L524.611 338.689C523.785 338.616 523.176 337.888 523.249 337.063C523.322 336.238 524.05 335.628 524.875 335.701L538.557 336.913C539.716 337.016 540.57 336.886 541.464 336.678C541.683 336.627 541.92 336.567 542.172 336.503C542.919 336.313 543.806 336.088 544.812 335.956C546.651 335.715 548.474 335.072 550.431 334.317C550.691 334.216 550.954 334.114 551.22 334.01C552.903 333.354 554.698 332.653 556.529 332.218C557.334 332.027 558.143 332.525 558.335 333.331C558.526 334.137 558.028 334.945 557.222 335.137C555.611 335.52 554.03 336.135 552.333 336.796C552.063 336.902 551.789 337.008 551.511 337.115C549.549 337.873 547.431 338.639 545.202 338.931C544.385 339.038 543.75 339.199 543.054 339.376C542.766 339.449 542.468 339.524 542.143 339.6Z" fill="#CBD5E1"/>
<path fill-rule="evenodd" clip-rule="evenodd" d="M575.451 322.925C575.341 322.104 575.918 321.35 576.739 321.24C579.526 320.867 580.943 319.716 582.169 318.146C582.677 317.495 583.132 316.799 583.645 316.014C583.8 315.777 583.96 315.532 584.129 315.278C584.834 314.214 585.643 313.056 586.694 311.927C587.703 310.843 588.849 309.481 589.766 308.058C590.702 306.605 591.301 305.238 591.4 304.12C591.473 303.295 592.201 302.685 593.026 302.758C593.852 302.831 594.461 303.559 594.388 304.385C594.225 306.227 593.315 308.088 592.288 309.683C591.24 311.308 589.967 312.814 588.891 313.97C588.009 314.918 587.307 315.912 586.63 316.935C586.488 317.149 586.345 317.368 586.201 317.589C585.675 318.394 585.127 319.232 584.533 319.993C582.922 322.057 580.844 323.718 577.137 324.213C576.316 324.323 575.561 323.747 575.451 322.925Z" fill="#CBD5E1"/>
<path fill-rule="evenodd" clip-rule="evenodd" d="M603.388 291.634C602.722 291.142 602.58 290.203 603.072 289.536C604.466 287.648 606.008 286 607.478 284.43C607.66 284.235 607.841 284.041 608.021 283.848C609.67 282.079 611.213 280.361 612.521 278.333C613.355 277.04 614.567 276.194 615.51 275.536C615.623 275.457 615.732 275.381 615.836 275.307C616.888 274.56 617.617 273.945 618.034 272.985C618.365 272.225 619.248 271.877 620.008 272.207C620.768 272.538 621.116 273.421 620.785 274.181C620.014 275.956 618.668 276.975 617.573 277.753C617.466 277.829 617.361 277.903 617.26 277.974C616.253 278.685 615.538 279.19 615.042 279.959C613.578 282.23 611.873 284.115 610.216 285.893C610.033 286.09 609.851 286.284 609.67 286.478C608.188 288.062 606.77 289.579 605.486 291.318C604.994 291.985 604.055 292.126 603.388 291.634Z" fill="#CBD5E1"/>
<path fill-rule="evenodd" clip-rule="evenodd" d="M629.627 262.155C629.395 261.36 629.852 260.527 630.647 260.295C632.764 259.678 633.866 259.222 634.784 258.63C635.732 258.019 636.551 257.224 638.074 255.735C638.963 254.867 640.216 254.364 641.131 253.997C641.237 253.955 641.339 253.914 641.435 253.874C642.547 253.419 643.143 253.089 643.445 252.656C644.126 251.676 645.083 250.944 646.041 250.363C647.001 249.781 648.071 249.287 649.036 248.843L649.076 248.825C650.06 248.373 650.929 247.973 651.657 247.537C652.403 247.09 652.839 246.696 653.057 246.341C653.492 245.635 654.416 245.416 655.121 245.85C655.826 246.284 656.046 247.208 655.612 247.914C655.019 248.876 654.097 249.572 653.199 250.11C652.328 250.632 651.328 251.092 650.403 251.517C650.365 251.534 650.327 251.552 650.289 251.569C649.299 252.025 648.386 252.449 647.597 252.928C646.806 253.408 646.248 253.879 645.908 254.368C645.029 255.633 643.578 256.239 642.573 256.651C642.498 256.681 642.426 256.711 642.355 256.739C641.288 257.176 640.609 257.453 640.171 257.881C640.129 257.922 640.087 257.963 640.045 258.004C638.655 259.362 637.63 260.365 636.41 261.152C635.124 261.981 633.688 262.534 631.487 263.175C630.692 263.407 629.859 262.95 629.627 262.155Z" fill="#CBD5E1"/>
<path fill-rule="evenodd" clip-rule="evenodd" d="M19.5449 572.398C18.4565 572.65 17.2686 572.838 15.6944 572.699L2.01274 571.487C1.18755 571.414 0.577859 570.686 0.650964 569.86C0.724069 569.035 1.45229 568.425 2.27748 568.499L15.9591 569.711C17.118 569.813 17.9717 569.683 18.8663 569.475C19.0856 569.424 19.3217 569.365 19.5739 569.301C20.3207 569.111 21.2079 568.886 22.214 568.754C24.0534 568.513 25.876 567.87 27.8336 567.114C28.0933 567.014 28.3561 566.912 28.6217 566.808C30.3047 566.151 32.1005 565.451 33.9307 565.016C34.7366 564.824 35.5453 565.322 35.7369 566.128C35.9285 566.934 35.4305 567.743 34.6245 567.935C33.0132 568.318 31.4326 568.933 29.7356 569.594C29.4647 569.699 29.1909 569.806 28.9135 569.913C26.9508 570.67 24.8328 571.436 22.6038 571.728C21.7875 571.835 21.1524 571.997 20.4559 572.173C20.1684 572.246 19.8704 572.322 19.5449 572.398Z" fill="#CBD5E1"/>
<path fill-rule="evenodd" clip-rule="evenodd" d="M52.8535 555.723C52.7437 554.902 53.3203 554.147 54.1415 554.037C56.9278 553.665 58.3454 552.513 59.5712 550.944C60.0794 550.293 60.5347 549.596 61.0476 548.812C61.2025 548.575 61.3626 548.33 61.531 548.076C62.2363 547.011 63.0457 545.854 64.0966 544.724C65.1052 543.64 66.2514 542.278 67.1681 540.856C68.1043 539.403 68.7031 538.036 68.8022 536.917C68.8753 536.092 69.6035 535.482 70.4287 535.556C71.2539 535.629 71.8636 536.357 71.7905 537.182C71.6273 539.025 70.7177 540.886 69.6899 542.481C68.6427 544.106 67.3692 545.611 66.2929 546.768C65.4114 547.715 64.7095 548.71 64.0319 549.733C63.8902 549.947 63.7474 550.165 63.6029 550.387C63.0773 551.191 62.5294 552.03 61.9356 552.79C60.3238 554.854 58.2465 556.515 54.5391 557.011C53.718 557.121 52.9634 556.544 52.8535 555.723Z" fill="#CBD5E1"/>
<path fill-rule="evenodd" clip-rule="evenodd" d="M80.7904 524.432C80.1239 523.94 79.9825 523.001 80.4745 522.334C81.8686 520.446 83.4107 518.798 84.88 517.227C85.0624 517.032 85.2437 516.839 85.4234 516.646C87.0721 514.877 88.6152 513.159 89.9232 511.131C90.7568 509.838 91.9697 508.991 92.9122 508.333C93.0253 508.254 93.1345 508.178 93.2386 508.104C94.2903 507.358 95.0191 506.743 95.4364 505.783C95.7667 505.023 96.6504 504.675 97.4101 505.005C98.1698 505.335 98.518 506.219 98.1877 506.979C97.416 508.754 96.0706 509.773 94.9753 510.55C94.8679 510.627 94.7636 510.7 94.6622 510.772C93.6548 511.483 92.9405 511.987 92.4443 512.757C90.9798 515.027 89.2755 516.913 87.618 518.691C87.4352 518.887 87.2532 519.082 87.0722 519.276C85.5906 520.86 84.1718 522.377 82.8881 524.116C82.3961 524.782 81.4569 524.924 80.7904 524.432Z" fill="#CBD5E1"/>
<path fill-rule="evenodd" clip-rule="evenodd" d="M107.029 494.953C106.798 494.157 107.254 493.325 108.05 493.093C110.166 492.476 111.269 492.02 112.186 491.428C113.134 490.817 113.953 490.022 115.477 488.533C116.365 487.665 117.618 487.162 118.533 486.795C118.64 486.752 118.741 486.711 118.838 486.672C119.949 486.217 120.546 485.887 120.847 485.453C121.528 484.474 122.485 483.742 123.443 483.161C124.403 482.578 125.473 482.085 126.438 481.641L126.478 481.623C127.462 481.17 128.332 480.771 129.059 480.335C129.805 479.888 130.241 479.493 130.46 479.138C130.894 478.433 131.818 478.213 132.523 478.648C133.229 479.082 133.448 480.006 133.014 480.711C132.421 481.674 131.499 482.37 130.601 482.908C129.73 483.43 128.73 483.889 127.806 484.314C127.767 484.332 127.729 484.349 127.692 484.367C126.701 484.822 125.788 485.247 124.999 485.726C124.208 486.205 123.651 486.676 123.31 487.166C122.431 488.431 120.98 489.036 119.975 489.448C119.9 489.479 119.828 489.508 119.757 489.537C118.69 489.973 118.012 490.25 117.573 490.679C117.531 490.72 117.489 490.761 117.448 490.802C116.058 492.16 115.032 493.163 113.812 493.949C112.526 494.779 111.09 495.331 108.889 495.973C108.094 496.205 107.261 495.748 107.029 494.953Z" fill="#CBD5E1"/>
<path d="M1226.2 21.5846L1227.09 21.0825C1228.43 20.3163 1229.48 19.2127 1230.22 17.9709L1232.87 18.7977C1233.66 19.0435 1234.44 18.5944 1234.63 17.7936C1234.87 16.9665 1234.44 16.1374 1233.68 15.9402L1231.39 15.2255C1231.82 13.1504 1231.6 10.8745 1230.55 8.82609C1229.49 6.77773 1227.79 5.34717 1225.86 4.61994L1226.56 2.13857C1226.79 1.31142 1226.36 0.482337 1225.6 0.285201C1224.81 0.0393642 1224.02 0.488537 1223.84 1.2893L1223.05 4.07131C1221.61 4.07137 1220.16 4.39445 1218.86 5.13423L1217.98 5.63631C1213.28 1.30615 1207.58 0.138022 1202.62 2.96527C1200.2 4.33929 1198.77 6.6725 1198.71 9.35486C1198.69 10.1251 1198.8 10.8161 1198.99 11.5292L1196.86 12.7447C1191.57 15.7569 1189.13 22.1952 1190.66 28.0741L1188.7 31.1448C1188.12 32.1081 1188.77 33.376 1189.86 33.3884L1193.38 33.3413C1197.23 37.8994 1203.65 39.2907 1208.98 36.2521L1211.12 35.0366C1211.58 35.5915 1212.14 36.0931 1212.7 36.4711C1214.87 37.8853 1217.51 37.8934 1219.92 36.5194C1224.91 33.7416 1227.12 28.1298 1226.2 21.5846ZM1195.87 17.346C1196.49 16.6792 1197.2 16.0838 1197.99 15.6346L1207.37 33.826C1206.56 34.2265 1205.72 34.5781 1204.85 34.7569L1195.87 17.346ZM1199.33 34.1783C1197.27 33.3309 1195.43 31.7318 1194.27 29.4885C1193.11 27.2449 1192.84 24.7475 1193.29 22.4735L1199.33 34.1783ZM1204.29 17.7252C1206.85 18.9766 1209.89 19.2692 1213.29 18.6554C1210.94 21.3179 1209.52 24.1468 1209.12 27.0895L1204.29 17.7252ZM1204 5.64786C1208.55 3.05851 1215.2 4.44199 1220.17 13.0315C1211.42 17.7021 1206.42 15.6906 1204.64 14.5609C1202.73 13.3115 1201.56 11.391 1201.59 9.47875C1201.66 7.86304 1202.51 6.49347 1204 5.64786ZM1214.22 33.9615C1212.68 32.9475 1211.72 30.8463 1211.83 28.5092C1211.9 26.3227 1213.03 20.8234 1221.48 15.6913C1225.62 24.7565 1223.09 31.3716 1218.54 33.961C1217.11 34.7804 1215.55 34.7845 1214.22 33.9615Z" fill="#CBD5E1"/>
</svg>
