<svg width="199" height="171" viewBox="0 0 199 171" fill="none" xmlns="http://www.w3.org/2000/svg">
<path fill-rule="evenodd" clip-rule="evenodd" d="M184.307 24.3194C183.931 24.8465 184.057 25.5763 184.588 25.9494C189.583 29.4595 194.935 35.7197 196.014 43.3826C196.046 43.6055 196.077 43.8256 196.108 44.0434C196.64 47.7738 197.075 50.8211 195.886 55.6942C194.609 60.9245 191.449 68.2873 184.379 80.6443C184.058 81.2059 184.256 81.9197 184.822 82.2386C185.387 82.5576 186.106 82.3609 186.428 81.7993C193.521 69.4004 196.818 61.8049 198.175 56.2448C199.471 50.9314 198.982 47.5067 198.444 43.7419C198.412 43.5155 198.38 43.2879 198.347 43.0586C197.149 34.5521 191.276 27.7839 185.949 24.0405C185.418 23.6674 184.683 23.7923 184.307 24.3194Z" fill="#CBD5E1"/>
<path fill-rule="evenodd" clip-rule="evenodd" d="M175.971 92.8748C175.464 92.4702 174.723 92.5504 174.316 93.0538C173.451 94.1224 171.864 95.3685 169.682 96.6764C167.522 97.9709 164.86 99.2777 161.925 100.493C156.05 102.925 149.171 104.953 143.18 105.785C134.09 107.047 127.229 107.159 122.103 107.03C120.324 106.986 118.766 106.913 117.379 106.848C116.755 106.819 116.166 106.792 115.607 106.769C113.843 106.698 112.344 106.673 111.142 106.84C110.498 106.929 110.048 107.52 110.138 108.16C110.229 108.799 110.824 109.245 111.468 109.156C112.43 109.022 113.727 109.033 115.511 109.106C116.045 109.127 116.62 109.154 117.236 109.183C118.634 109.248 120.239 109.323 122.043 109.368C127.272 109.499 134.265 109.384 143.506 108.101C149.736 107.236 156.812 105.144 162.832 102.651C165.845 101.403 168.616 100.047 170.899 98.6786C173.16 97.3239 175.027 95.9083 176.152 94.5187C176.559 94.0153 176.479 93.2793 175.971 92.8748Z" fill="#CBD5E1"/>
<path fill-rule="evenodd" clip-rule="evenodd" d="M65.8269 97.167C65.7201 97.8041 66.1538 98.4065 66.7954 98.5125C67.0461 98.5539 67.4734 98.7842 68.0742 99.2718C68.4387 99.5678 68.7368 99.8423 69.0382 100.12C69.249 100.314 69.4613 100.51 69.6992 100.715C71.1129 101.936 72.5861 102.887 74.0399 103.826C74.6354 104.21 75.2277 104.593 75.8113 104.991C83.3006 110.098 90.8121 110.67 99.4744 109.467C100.119 109.378 100.568 108.787 100.478 108.147C100.388 107.508 99.7923 107.062 99.148 107.151C90.8155 108.308 83.9734 107.719 77.145 103.063C76.4543 102.592 75.8038 102.172 75.1796 101.77C73.7896 100.873 72.5298 100.06 71.2454 98.9507C71.1216 98.8437 70.9517 98.6885 70.7576 98.5112C70.3972 98.1819 69.9532 97.7763 69.5653 97.4613C68.9496 96.9616 68.101 96.3573 67.1821 96.2055C66.5405 96.0995 65.9337 96.53 65.8269 97.167Z" fill="#CBD5E1"/>
<path fill-rule="evenodd" clip-rule="evenodd" d="M38.5637 65.5221C37.9195 65.6115 37.4703 66.2025 37.5604 66.8421C37.8225 68.7028 38.7506 70.4741 39.7436 72.0497C40.2284 72.819 40.7488 73.5717 41.2401 74.2822L41.2915 74.3565C41.8041 75.098 42.28 75.789 42.6851 76.4485C43.1464 77.1994 43.5875 77.9504 44.0247 78.6946C46.6664 83.1918 49.1623 87.4407 55.0708 89.9134C55.6703 90.1643 56.361 89.8852 56.6137 89.2901C56.8664 88.695 56.5853 88.0092 55.9859 87.7584C50.8479 85.6082 48.7626 82.0795 46.1145 77.5984C45.664 76.8361 45.1972 76.0462 44.6963 75.2308C44.2525 74.5085 43.7401 73.7656 43.2337 73.0331L43.1927 72.9738C42.6937 72.2521 42.1983 71.5356 41.7405 70.8092C40.7893 69.2999 40.0843 67.8733 39.8933 66.5182C39.8032 65.8786 39.2079 65.4326 38.5637 65.5221Z" fill="#CBD5E1"/>
<path fill-rule="evenodd" clip-rule="evenodd" d="M118.579 67.5085C117.933 67.6136 117.482 68.2141 117.572 68.8499C117.82 70.6108 118.642 73.6605 119.5 76.5812C120.367 79.5315 121.298 82.4446 121.797 83.9782L121.799 83.9846C123.752 89.9863 125.567 95.5658 131.532 99.786C132.055 100.156 132.795 100.029 133.183 99.502C133.572 98.9747 133.462 98.247 132.939 97.8766C127.654 94.1376 126.016 89.2631 124.047 83.2119C123.551 81.6881 122.627 78.798 121.769 75.8772C120.902 72.9268 120.131 70.0373 119.91 68.4692C119.821 67.8335 119.225 67.4033 118.579 67.5085Z" fill="#CBD5E1"/>
<path fill-rule="evenodd" clip-rule="evenodd" d="M169.408 18.5387C169.87 18.7128 170.343 18.8907 170.829 19.0715C171.438 19.2981 172.143 19.0019 172.403 18.4099C172.663 17.818 172.38 17.1544 171.771 16.9279C171.287 16.7479 170.811 16.5683 170.341 16.3908C166.262 14.8519 162.592 13.4677 157.832 13.3468C153.898 13.247 149.957 13.7185 146.131 14.4874C145.478 14.6186 145.04 15.2276 145.152 15.8477C145.265 16.4678 145.885 16.8642 146.538 16.733C150.236 15.9899 153.981 15.5475 157.678 15.6413C162.001 15.751 165.289 16.9885 169.408 18.5387Z" fill="#CBD5E1"/>
<path fill-rule="evenodd" clip-rule="evenodd" d="M129.078 22.9271C129.462 22.6191 129.854 22.304 130.255 21.9791C130.759 21.5709 130.812 20.8534 130.374 20.3764C129.935 19.8994 129.171 19.8436 128.667 20.2518C128.268 20.5751 127.872 20.892 127.482 21.2054C124.094 23.9213 121.04 26.3698 118.713 30.3298C117.753 31.9639 116.429 34.3848 115.599 38.1169C114.771 41.8392 114.444 46.817 115.397 53.5821C115.485 54.2051 116.093 54.6474 116.755 54.57C117.418 54.4926 117.884 53.9248 117.796 53.3018C116.873 46.7509 117.203 42.0345 117.968 38.5994C118.73 35.1744 119.932 32.975 120.834 31.441C122.939 27.8573 125.66 25.6719 129.078 22.9271Z" fill="#CBD5E1"/>
<path fill-rule="evenodd" clip-rule="evenodd" d="M179.499 153.532C178.973 153.911 178.855 154.643 179.237 155.165C180.801 157.306 183.475 159.973 186.196 162.654C186.394 162.849 186.592 163.044 186.79 163.239C189.361 165.771 191.949 168.318 193.851 170.58C194.268 171.076 195.011 171.142 195.51 170.728C196.009 170.314 196.076 169.577 195.659 169.081C193.683 166.73 191.017 164.106 188.47 161.6C188.264 161.397 188.059 161.195 187.855 160.994C185.088 158.267 182.572 155.746 181.144 153.792C180.762 153.27 180.026 153.153 179.499 153.532Z" fill="#CBD5E1"/>
<path fill-rule="evenodd" clip-rule="evenodd" d="M150.896 115.573C150.704 116.19 151.051 116.845 151.673 117.037C152.992 117.443 154.517 118.579 156.167 120.322C157.793 122.04 159.435 124.231 161.006 126.567C163.093 129.67 164.976 132.899 166.531 135.564C167.342 136.956 168.064 138.193 168.679 139.179C169.021 139.728 169.747 139.898 170.3 139.558C170.853 139.218 171.024 138.498 170.682 137.948C170.132 137.066 169.445 135.888 168.655 134.536C167.074 131.827 165.083 128.417 162.965 125.268C161.361 122.883 159.637 120.572 157.884 118.72C156.154 116.894 154.285 115.392 152.37 114.803C151.749 114.612 151.089 114.957 150.896 115.573Z" fill="#CBD5E1"/>
<path d="M23.705 9.70436L23.3465 8.68909C22.7995 7.13981 21.8593 5.84703 20.7252 4.86189L22.0194 2.19175C22.4042 1.39786 22.0834 0.48957 21.3024 0.16131C20.5026 -0.220304 19.5872 0.0982542 19.2562 0.87343L18.1374 3.18246C16.1041 2.3902 13.7561 2.24773 11.4947 3.03477C9.23318 3.82181 7.48888 5.3889 6.41807 7.32137L4.0186 6.17656C3.21875 5.79495 2.30342 6.11351 1.97241 6.88868C1.58763 7.68257 1.90835 8.59086 2.68936 8.91912L5.37954 10.2026C5.13226 11.7287 5.21075 13.3211 5.73897 14.817L6.09746 15.8323C0.894249 20.1031 -1.27132 25.9562 0.747404 31.6733C1.72848 34.4518 3.851 36.353 6.56517 36.848C7.34332 36.9974 8.06508 36.986 8.82145 36.9027L9.68936 39.3607C11.8401 45.4517 17.9589 49.0818 24.1919 48.4125L26.9741 50.984C27.8522 51.7581 29.252 51.2709 29.4511 50.1219L30.0071 46.3887C35.297 43.0478 37.8122 36.473 35.6425 30.3284L34.7746 27.8704C35.4181 27.4665 36.0235 26.9558 36.5026 26.4291C38.3113 24.3597 38.7736 21.5592 37.7926 18.7808C35.8284 13.045 30.5088 9.79635 23.705 9.70436ZM14.1923 41.1532C13.6211 40.3919 13.1389 39.5399 12.8181 38.6316L32.9022 31.6419C33.1692 32.5688 33.3821 33.5146 33.4147 34.4633L14.1923 41.1532ZM31.8793 40.2172C30.6655 42.2597 28.7249 43.955 26.2482 44.8169C23.7711 45.679 21.1891 45.5577 18.9568 44.7145L31.8793 40.2172ZM16.0228 32.2965C17.7342 29.7808 18.5518 26.6166 18.5131 22.9104C20.8137 25.8294 23.4422 27.7947 26.3614 28.6985L16.0228 32.2965ZM3.70915 30.6422C1.86029 25.4062 4.40796 18.5798 13.9839 14.7072C17.2237 24.739 14.3227 29.7083 12.8694 31.414C11.2735 33.2295 9.12234 34.1581 7.1863 33.812C5.55711 33.4788 4.31294 32.3522 3.70915 30.6422ZM34.2163 24.4047C32.9216 25.8751 30.6225 26.5552 28.269 26.0543C26.0611 25.6229 20.6697 23.5393 16.9101 13.7485C26.8258 10.8375 33.1089 14.5906 34.9578 19.8267C35.5428 21.4837 35.2796 23.1349 34.2163 24.4047Z" fill="#CBD5E1"/>
</svg>
