<svg width="1235" height="325" viewBox="0 0 1235 325" fill="none" xmlns="http://www.w3.org/2000/svg">
<path fill-rule="evenodd" clip-rule="evenodd" d="M230.762 183.352C230.96 184.156 230.469 184.969 229.665 185.167C223.773 186.618 216.413 190.536 212.28 197.371C212.159 197.571 212.039 197.768 211.921 197.963C209.887 201.315 208.241 204.027 207.282 209.076C206.251 214.505 206.014 222.678 207.205 237.099C207.273 237.924 206.659 238.649 205.833 238.717C205.007 238.785 204.283 238.171 204.215 237.345C203.019 222.86 203.226 214.357 204.335 208.516C205.396 202.928 207.283 199.821 209.339 196.436C209.463 196.231 209.588 196.026 209.713 195.819C214.377 188.107 222.538 183.833 228.947 182.254C229.752 182.056 230.564 182.548 230.762 183.352Z" fill="#CBD5E1"/>
<path fill-rule="evenodd" clip-rule="evenodd" d="M209.24 251.557C210.045 251.359 210.857 251.85 211.056 252.655C211.372 253.94 212.249 255.68 213.653 257.731C215.038 259.756 216.87 261.985 218.987 264.233C223.229 268.738 228.533 273.229 233.528 276.249C241.141 280.853 247.235 283.528 251.875 285.326C253.486 285.95 254.908 286.464 256.179 286.922C256.753 287.13 257.296 287.326 257.812 287.516C259.423 288.11 260.816 288.662 261.866 289.296C262.575 289.725 262.802 290.647 262.373 291.356C261.944 292.065 261.022 292.292 260.313 291.863C259.544 291.398 258.412 290.934 256.775 290.331C256.29 290.152 255.765 289.963 255.201 289.759C253.917 289.295 252.435 288.76 250.791 288.123C246.022 286.276 239.765 283.527 231.976 278.816C226.702 275.627 221.19 270.948 216.804 266.29C214.607 263.958 212.671 261.608 211.177 259.426C209.701 257.27 208.587 255.177 208.143 253.372C207.944 252.568 208.436 251.755 209.24 251.557Z" fill="#CBD5E1"/>
<path fill-rule="evenodd" clip-rule="evenodd" d="M306.801 297.433C306.618 298.241 305.815 298.748 305.007 298.565C304.877 298.536 304.481 298.561 303.731 298.802C303.283 298.946 302.919 299.088 302.543 299.236C302.273 299.341 301.996 299.45 301.678 299.563C299.876 300.202 298.121 300.562 296.415 300.911C295.725 301.053 295.043 301.193 294.368 301.349C285.39 303.426 278.296 301.107 270.956 296.668C270.247 296.239 270.02 295.317 270.449 294.608C270.878 293.899 271.8 293.672 272.509 294.101C279.449 298.298 285.733 300.268 293.692 298.426C294.527 298.233 295.296 298.075 296.028 297.926C297.64 297.596 299.078 297.302 300.674 296.736C300.814 296.686 301.021 296.606 301.263 296.513C301.731 296.332 302.329 296.101 302.814 295.946C303.569 295.703 304.667 295.413 305.668 295.639C306.476 295.822 306.983 296.625 306.801 297.433Z" fill="#CBD5E1"/>
<path fill-rule="evenodd" clip-rule="evenodd" d="M344.309 277.216C345.018 277.645 345.245 278.567 344.817 279.276C343.782 280.986 342.18 282.346 340.623 283.479C339.862 284.033 339.076 284.557 338.339 285.048L338.261 285.101C337.49 285.615 336.779 286.091 336.146 286.563C335.426 287.099 334.721 287.645 334.021 288.188C329.776 291.477 325.678 294.653 319.223 294.79C318.395 294.808 317.709 294.151 317.691 293.322C317.674 292.494 318.331 291.808 319.159 291.791C324.558 291.676 327.823 289.163 332.077 285.889C332.802 285.331 333.556 284.751 334.354 284.156C335.06 283.631 335.836 283.112 336.596 282.605L336.656 282.565C337.407 282.064 338.147 281.571 338.858 281.054C340.334 279.979 341.534 278.906 342.25 277.724C342.678 277.015 343.6 276.787 344.309 277.216Z" fill="#CBD5E1"/>
<path fill-rule="evenodd" clip-rule="evenodd" d="M271.61 249.028C272.319 249.457 272.546 250.379 272.117 251.088C271.15 252.688 269.127 255.296 267.139 257.754C265.127 260.241 263.072 262.668 261.983 263.942L261.95 263.981C257.712 268.938 253.7 273.633 246.479 275.436C245.676 275.637 244.861 275.148 244.661 274.345C244.46 273.541 244.949 272.727 245.752 272.526C251.944 270.979 255.396 267.031 259.703 261.993C260.783 260.729 262.819 258.325 264.807 255.867C266.819 253.38 268.707 250.93 269.55 249.535C269.979 248.826 270.901 248.599 271.61 249.028Z" fill="#CBD5E1"/>
<path fill-rule="evenodd" clip-rule="evenodd" d="M246.239 183.824C245.753 183.816 245.255 183.808 244.743 183.797C243.915 183.78 243.257 183.095 243.274 182.267C243.291 181.438 243.976 180.781 244.804 180.798C245.313 180.808 245.816 180.816 246.314 180.824C250.615 180.89 254.555 180.951 258.945 182.65C262.555 184.047 265.923 185.993 269.054 188.174C269.734 188.648 269.901 189.583 269.428 190.262C268.954 190.942 268.019 191.109 267.339 190.636C264.343 188.549 261.188 186.735 257.863 185.448C253.997 183.952 250.593 183.896 246.239 183.824Z" fill="#CBD5E1"/>
<path fill-rule="evenodd" clip-rule="evenodd" d="M280.366 202.992C280.151 202.556 279.931 202.109 279.706 201.649C279.343 200.904 279.652 200.006 280.396 199.643C281.141 199.279 282.039 199.588 282.402 200.332C282.625 200.79 282.848 201.24 283.069 201.687C284.976 205.542 286.727 209.082 287.171 213.798C287.353 215.735 287.533 218.576 286.711 222.49C285.892 226.389 284.092 231.286 280.397 237.397C279.968 238.105 279.046 238.333 278.337 237.904C277.628 237.475 277.401 236.553 277.83 235.844C281.38 229.975 283.036 225.39 283.775 221.873C284.511 218.369 284.351 215.86 284.184 214.079C283.795 209.943 282.293 206.898 280.366 202.992Z" fill="#CBD5E1"/>
<path fill-rule="evenodd" clip-rule="evenodd" d="M24.5878 302.947C24.4052 303.755 23.6022 304.262 22.7941 304.08C15.7717 302.493 10.0409 298.926 4.2508 295.322C3.13169 294.625 2.01037 293.927 0.877079 293.242C0.168199 292.813 -0.0589407 291.891 0.369755 291.182C0.798451 290.473 1.72064 290.246 2.42952 290.674C3.63192 291.402 4.79891 292.127 5.94445 292.838C11.7309 296.434 16.9696 299.688 23.4551 301.153C24.2632 301.336 24.7703 302.139 24.5878 302.947Z" fill="#CBD5E1"/>
<path fill-rule="evenodd" clip-rule="evenodd" d="M79.5269 319.657C79.4605 320.483 78.7372 321.098 77.9115 321.032C77.6569 321.011 77.4053 320.991 77.1565 320.971C71.0978 320.485 66.75 320.136 62.4955 319.031C58.0255 317.869 53.7186 315.892 47.5834 312.182C46.8746 311.753 46.6474 310.831 47.0761 310.122C47.5048 309.413 48.427 309.186 49.1359 309.615C55.1432 313.247 59.1706 315.067 63.2501 316.127C67.2454 317.165 71.3479 317.495 77.5616 317.994C77.7563 318.01 77.9531 318.025 78.152 318.041C78.9777 318.108 79.5933 318.831 79.5269 319.657Z" fill="#CBD5E1"/>
<path fill-rule="evenodd" clip-rule="evenodd" d="M123.897 323.226C123.831 324.051 123.107 324.667 122.282 324.6C119.582 324.383 116.853 324.401 114.013 324.42C113.453 324.424 112.889 324.427 112.32 324.429C108.896 324.441 105.334 324.387 101.695 323.834C100.876 323.71 100.313 322.945 100.437 322.126C100.562 321.307 101.327 320.744 102.146 320.868C105.541 321.384 108.907 321.441 112.31 321.429C112.857 321.428 113.407 321.424 113.958 321.42C116.799 321.401 119.681 321.382 122.522 321.61C123.348 321.677 123.963 322.4 123.897 323.226Z" fill="#CBD5E1"/>
<path fill-rule="evenodd" clip-rule="evenodd" d="M181.075 308.166C181.518 308.866 181.308 309.792 180.608 310.235C178.288 311.7 174.751 313.244 171.193 314.773C170.935 314.884 170.677 314.994 170.419 315.105C167.048 316.552 163.671 318.001 161.031 319.435C160.303 319.83 159.392 319.56 158.997 318.832C158.602 318.104 158.871 317.193 159.6 316.798C162.368 315.295 165.871 313.792 169.201 312.363C169.472 312.247 169.741 312.132 170.009 312.016C173.639 310.456 176.929 309.01 179.006 307.698C179.707 307.256 180.633 307.465 181.075 308.166Z" fill="#CBD5E1"/>
<path fill-rule="evenodd" clip-rule="evenodd" d="M222.703 282.943C222.637 283.769 221.914 284.384 221.088 284.318C219.832 284.217 218.053 284.692 215.848 285.73C213.689 286.746 211.314 288.207 208.931 289.839C205.766 292.007 202.742 294.363 200.237 296.315C198.924 297.338 197.754 298.249 196.78 298.965C196.113 299.455 195.174 299.312 194.683 298.645C194.193 297.977 194.336 297.038 195.004 296.548C195.857 295.921 196.96 295.062 198.231 294.073C200.785 292.084 204.014 289.57 207.236 287.364C209.678 285.691 212.204 284.13 214.571 283.016C216.892 281.923 219.263 281.161 221.328 281.327C222.154 281.394 222.77 282.117 222.703 282.943Z" fill="#CBD5E1"/>
<path fill-rule="evenodd" clip-rule="evenodd" d="M1081.07 241.855C1081.33 242.641 1080.9 243.49 1080.12 243.752C1079.99 243.795 1079.67 244.021 1079.15 244.615C1078.84 244.97 1078.6 245.28 1078.36 245.601C1078.18 245.831 1078 246.067 1077.79 246.329C1076.58 247.808 1075.26 249.024 1073.98 250.206C1073.46 250.684 1072.95 251.157 1072.46 251.639C1065.85 258.063 1058.58 259.75 1050 259.75C1049.17 259.75 1048.5 259.078 1048.5 258.25C1048.5 257.421 1049.17 256.75 1050 256.75C1058.11 256.75 1064.51 255.183 1070.36 249.488C1070.98 248.891 1071.56 248.359 1072.1 247.852C1073.31 246.736 1074.39 245.74 1075.46 244.429C1075.56 244.315 1075.69 244.139 1075.85 243.934C1076.16 243.537 1076.55 243.03 1076.89 242.646C1077.41 242.048 1078.2 241.231 1079.17 240.906C1079.96 240.644 1080.81 241.069 1081.07 241.855Z" fill="#CBD5E1"/>
<path fill-rule="evenodd" clip-rule="evenodd" d="M1102.7 205.146C1103.53 205.146 1104.2 205.817 1104.2 206.646C1104.2 208.645 1103.53 210.637 1102.79 212.413C1102.42 213.281 1102.02 214.135 1101.65 214.937L1101.61 215.023C1101.21 215.862 1100.85 216.637 1100.55 217.368C1100.21 218.199 1099.89 219.031 1099.58 219.858C1097.65 224.87 1095.78 229.708 1090.33 233.165C1089.63 233.609 1088.7 233.402 1088.26 232.702C1087.82 232.002 1088.02 231.076 1088.72 230.632C1093.28 227.74 1094.78 223.9 1096.72 218.897C1097.05 218.044 1097.4 217.158 1097.77 216.236C1098.11 215.421 1098.5 214.576 1098.89 213.749L1098.92 213.684C1099.3 212.866 1099.68 212.061 1100.02 211.251C1100.73 209.567 1101.2 208.028 1101.2 206.646C1101.2 205.817 1101.87 205.146 1102.7 205.146Z" fill="#CBD5E1"/>
<path fill-rule="evenodd" clip-rule="evenodd" d="M1116.43 161.777C1117.25 161.777 1117.93 162.449 1117.93 163.277C1117.93 168.097 1116.97 172.655 1116.04 177.046C1116.02 177.134 1116 177.221 1115.98 177.309C1115.06 181.65 1114.17 185.831 1114.08 190.206C1114.07 191.034 1113.38 191.692 1112.55 191.676C1111.73 191.661 1111.07 190.976 1111.08 190.148C1111.17 185.482 1112.12 181.055 1113.03 176.79C1113.05 176.667 1113.08 176.544 1113.1 176.421C1114.05 171.998 1114.93 167.736 1114.93 163.277C1114.93 162.449 1115.6 161.777 1116.43 161.777Z" fill="#CBD5E1"/>
<path fill-rule="evenodd" clip-rule="evenodd" d="M1118.52 105.72C1119.35 105.72 1120.02 106.392 1120.02 107.22V143.208C1120.02 144.036 1119.35 144.708 1118.52 144.708C1117.69 144.708 1117.02 144.036 1117.02 143.208V107.22C1117.02 106.392 1117.69 105.72 1118.52 105.72Z" fill="#CBD5E1"/>
<path fill-rule="evenodd" clip-rule="evenodd" d="M1131.19 61.0115C1131.45 61.7974 1131.02 62.6469 1130.24 62.9088C1129.78 63.0628 1129.26 63.4437 1128.69 64.1351C1128.13 64.8192 1127.61 65.7108 1127.1 66.7239C1126.61 67.732 1126.16 68.8048 1125.73 69.8382C1125.69 69.9484 1125.64 70.0587 1125.6 70.1688C1125.23 71.0633 1124.87 71.943 1124.53 72.6428C1121.69 78.4238 1120.77 82.8386 1120.77 89.2263C1120.77 90.0547 1120.1 90.7263 1119.27 90.7263C1118.44 90.7263 1117.77 90.0547 1117.77 89.2263C1117.77 82.4156 1118.78 77.5441 1121.84 71.3216C1122.13 70.7202 1122.45 69.9434 1122.83 69.0236C1122.87 68.9179 1122.91 68.8104 1122.96 68.701C1123.38 67.667 1123.86 66.5061 1124.42 65.3931C1124.96 64.2852 1125.61 63.1682 1126.37 62.2352C1127.13 61.3094 1128.09 60.4644 1129.29 60.0628C1130.08 59.8008 1130.93 60.2255 1131.19 61.0115Z" fill="#CBD5E1"/>
<path fill-rule="evenodd" clip-rule="evenodd" d="M1171.1 24.8141C1170.98 23.9944 1170.22 23.4269 1169.4 23.5466C1168.77 23.6388 1168.08 23.7313 1167.37 23.8288C1165 24.1498 1162.24 24.5248 1159.59 25.1177C1156.14 25.8864 1152.6 27.0753 1150.13 29.2075C1149.03 30.1575 1147.9 31.0598 1146.76 31.9752C1146.41 32.2601 1146.05 32.5462 1145.69 32.8354C1144.2 34.0412 1142.7 35.2869 1141.31 36.6401C1138.53 39.3609 1136.15 42.5633 1135.04 46.9269C1134.84 47.73 1135.33 48.5458 1136.13 48.7492C1136.93 48.9526 1137.75 48.4664 1137.95 47.6633C1138.88 44.011 1140.87 41.271 1143.41 38.7867C1144.69 37.5373 1146.1 36.3648 1147.58 35.1695C1147.92 34.8948 1148.26 34.618 1148.61 34.3388C1149.76 33.4165 1150.94 32.4678 1152.09 31.4792C1153.98 29.8511 1156.91 28.7899 1160.24 28.0455C1162.75 27.4834 1165.34 27.1328 1167.68 26.8142C1168.42 26.7132 1169.14 26.6154 1169.83 26.5151C1170.65 26.3954 1171.22 25.6338 1171.1 24.8141Z" fill="#CBD5E1"/>
<path d="M1224.97 27.1718L1226.02 27.0492C1227.61 26.862 1229.05 26.2467 1230.23 25.3817L1232.51 27.1818C1233.19 27.7171 1234.12 27.6073 1234.6 26.9365C1235.14 26.2593 1235.03 25.3224 1234.36 24.8422L1232.39 23.2858C1233.58 21.526 1234.21 19.3284 1233.94 17.0137C1233.67 14.6991 1232.54 12.708 1230.92 11.2778L1232.53 9.24614C1233.06 8.56888 1232.95 7.63201 1232.28 7.15182C1231.61 6.61658 1230.67 6.72632 1230.19 7.39713L1228.39 9.67499C1226.99 9.11336 1225.45 8.84667 1223.9 9.02741L1222.86 9.15007C1219.88 3.29741 1214.75 -0.0116912 1208.85 0.679047C1205.99 1.01474 1203.72 2.62155 1202.67 5.09112C1202.36 5.79755 1202.22 6.4849 1202.14 7.22051L1199.6 7.51748C1193.32 8.2534 1188.55 13.2821 1187.87 19.3403L1184.82 21.4295C1183.89 22.0969 1184.06 23.5297 1185.11 23.9648L1188.56 25.2923C1190.63 31.028 1196.38 34.8235 1202.72 34.0811L1205.25 33.7841C1205.5 34.4813 1205.86 35.1653 1206.26 35.7328C1207.85 37.8925 1210.43 38.9312 1213.3 38.5956C1219.2 37.9606 1223.43 33.6086 1224.97 27.1718ZM1196.93 11.4065C1197.78 11.0275 1198.7 10.7525 1199.63 10.6428L1202.04 31.1992C1201.1 31.254 1200.15 31.2534 1199.24 31.0811L1196.93 11.4065ZM1194.06 28.3912C1192.37 26.8018 1191.16 24.5969 1190.87 22.062C1190.57 19.5267 1191.23 17.1024 1192.51 15.1647L1194.06 28.3912ZM1205.01 15.0412C1207.05 17.2042 1209.9 18.6581 1213.45 19.4154C1210.17 20.9732 1207.73 23.0464 1206.25 25.6229L1205.01 15.0412ZM1209.21 3.71052C1214.61 3.07791 1220.59 6.95813 1222.26 16.875C1211.98 17.8 1207.84 13.9824 1206.52 12.2378C1205.13 10.3344 1204.7 8.09409 1205.44 6.33103C1206.1 4.85639 1207.45 3.91712 1209.21 3.71052ZM1208.68 33.9969C1207.55 32.4532 1207.39 30.1257 1208.37 27.9997C1209.25 25.9969 1212.39 21.3272 1222.55 19.8573C1223.22 29.8905 1218.3 35.0487 1212.9 35.6813C1211.19 35.8815 1209.67 35.2779 1208.68 33.9969Z" fill="#CBD5E1"/>
</svg>