<svg viewBox="0 0 100 25" fill="none" xmlns="http://www.w3.org/2000/svg">
<path fill-rule="evenodd" clip-rule="evenodd" d="M56.5946 20.6987V4.51646L59.8081 4V9.42278C60.0238 9.35105 60.297 9.2865 60.6277 9.22911C60.9728 9.15738 61.3035 9.12152 61.6198 9.12152C62.54 9.12152 63.302 9.25063 63.9059 9.50886C64.5242 9.75274 65.013 10.1042 65.3725 10.5633C65.7463 11.0224 66.0051 11.5675 66.1489 12.1987C66.307 12.83 66.3861 13.5329 66.3861 14.3076V20.6987H63.1726V14.6949C63.1726 13.662 63.036 12.9304 62.7628 12.5C62.504 12.0696 62.0152 11.8544 61.2963 11.8544C61.0087 11.8544 60.7355 11.8831 60.4767 11.9405C60.2323 11.9835 60.0094 12.0338 59.8081 12.0911V20.6987H56.5946ZM42.7903 20.6987H39.5768V9.37975H42.7903V20.6987ZM43.0922 6.10886C43.0922 6.69705 42.8981 7.16329 42.5099 7.50759C42.1361 7.83755 41.6903 8.00253 41.1727 8.00253C40.6551 8.00253 40.2022 7.83755 39.814 7.50759C39.4402 7.16329 39.2533 6.69705 39.2533 6.10886C39.2533 5.52067 39.4402 5.0616 39.814 4.73165C40.2022 4.38734 40.6551 4.21519 41.1727 4.21519C41.6903 4.21519 42.1361 4.38734 42.5099 4.73165C42.8981 5.0616 43.0922 5.52067 43.0922 6.10886ZM30.284 20.8924C29.4645 20.8924 28.6449 20.8637 27.8253 20.8063C27.0202 20.7633 26.1791 20.6485 25.302 20.462V6.00127C25.9921 5.87215 26.747 5.7789 27.5665 5.72152C28.3861 5.64979 29.1481 5.61392 29.8527 5.61392C30.8016 5.61392 31.6715 5.68565 32.4623 5.82911C33.2675 5.95823 33.9576 6.18776 34.5327 6.51772C35.1079 6.84768 35.5536 7.28523 35.8699 7.83038C36.2006 8.36118 36.366 9.0211 36.366 9.81013C36.366 11.0008 35.7908 11.9405 34.6406 12.6291C35.5895 12.9878 36.2365 13.4755 36.5816 14.0924C36.9267 14.7093 37.0992 15.4051 37.0992 16.1797C37.0992 17.7435 36.5241 18.9198 35.3739 19.7089C34.238 20.4979 32.5414 20.8924 30.284 20.8924ZM28.5802 14.2V18.0519C28.8246 18.0806 29.0906 18.1021 29.3782 18.1165C29.6657 18.1308 29.9821 18.138 30.3271 18.138C31.3336 18.138 32.146 17.9945 32.7642 17.7076C33.3825 17.4207 33.6916 16.8899 33.6916 16.1152C33.6916 15.4266 33.4328 14.9388 32.9152 14.6519C32.3976 14.3506 31.6571 14.2 30.6938 14.2H28.5802ZM28.5802 11.6392H30.2193C31.2545 11.6392 31.995 11.5101 32.4407 11.2519C32.8864 10.9793 33.1093 10.5489 33.1093 9.96076C33.1093 9.35823 32.8793 8.93502 32.4192 8.69114C31.9591 8.44726 31.2833 8.32532 30.3918 8.32532C30.1043 8.32532 29.7952 8.33249 29.4645 8.34684C29.1338 8.34684 28.839 8.36118 28.5802 8.38987V11.6392ZM45.6601 12.7367C45.4013 13.454 45.2719 14.2215 45.2719 15.0392C45.2719 15.8857 45.3797 16.6747 45.5954 17.4063C45.8254 18.1236 46.1777 18.7477 46.6521 19.2785C47.141 19.8093 47.7593 20.2325 48.5069 20.5481C49.2546 20.8494 50.146 21 51.1813 21C51.857 21 52.4753 20.9426 53.036 20.8279C53.5968 20.7131 54.0641 20.5768 54.4379 20.419L53.985 17.7937C53.6112 17.9515 53.2014 18.0662 52.7557 18.138C52.3099 18.2097 51.893 18.2456 51.5048 18.2456C50.412 18.2456 49.6428 17.9658 49.1971 17.4063C48.7657 16.8468 48.5501 16.0578 48.5501 15.0392C48.5501 14.0781 48.7801 13.3034 49.2402 12.7152C49.7147 12.127 50.4264 11.8329 51.3754 11.8329C51.8211 11.8329 52.2237 11.8759 52.5831 11.962C52.9426 12.0481 53.2733 12.1485 53.5752 12.2633L54.2438 9.70253C53.7693 9.50169 53.2805 9.35105 52.7772 9.25063C52.274 9.13587 51.7204 9.07848 51.1166 9.07848C50.1964 9.07848 49.3768 9.23629 48.6579 9.5519C47.939 9.86751 47.3279 10.2979 46.8247 10.843C46.3215 11.3738 45.9332 12.0051 45.6601 12.7367ZM69.2948 20.6987H72.5083V9.37975H69.2948V20.6987ZM72.228 7.50759C72.6162 7.16329 72.8103 6.69705 72.8103 6.10886C72.8103 5.52067 72.6162 5.0616 72.228 4.73165C71.8541 4.38734 71.4084 4.21519 70.8908 4.21519C70.3732 4.21519 69.9203 4.38734 69.5321 4.73165C69.1582 5.0616 68.9713 5.52067 68.9713 6.10886C68.9713 6.69705 69.1582 7.16329 69.5321 7.50759C69.9203 7.83755 70.3732 8.00253 70.8908 8.00253C71.4084 8.00253 71.8541 7.83755 72.228 7.50759ZM75.4213 6.56076L78.6348 6.0443V9.37975H82.4953V12.0481H78.6348V16.0291C78.6348 16.7034 78.7498 17.2414 78.9798 17.643C79.2243 18.0447 79.7059 18.2456 80.4248 18.2456C80.7699 18.2456 81.1222 18.2169 81.4816 18.1595C81.8555 18.0878 82.1934 17.9945 82.4953 17.8797L82.9482 20.3759C82.56 20.5338 82.1286 20.67 81.6542 20.7848C81.1797 20.8996 80.5974 20.957 79.9072 20.957C79.0302 20.957 78.3041 20.8422 77.7289 20.6127C77.1538 20.3688 76.6937 20.0388 76.3486 19.6228C76.0036 19.1924 75.7591 18.676 75.6154 18.0734C75.486 17.4709 75.4213 16.8038 75.4213 16.0722V6.56076ZM94.9138 17.4709C95.1726 16.7249 95.302 15.9072 95.302 15.0177C95.302 14.1283 95.1654 13.3177 94.8922 12.5861C94.619 11.8544 94.238 11.2304 93.7491 10.7139C93.2603 10.1975 92.6708 9.79578 91.9806 9.50886C91.3049 9.22194 90.5572 9.07848 89.7377 9.07848C88.9325 9.07848 88.1848 9.22194 87.4947 9.50886C86.8189 9.79578 86.2294 10.1975 85.7262 10.7139C85.2373 11.2304 84.8491 11.8544 84.5615 12.5861C84.2883 13.3177 84.1517 14.1283 84.1517 15.0177C84.1517 15.9072 84.2883 16.7249 84.5615 17.4709C84.8347 18.2025 85.2157 18.8338 85.7046 19.3646C86.1934 19.881 86.7758 20.2827 87.4515 20.5696C88.1417 20.8565 88.9037 21 89.7377 21C90.586 21 91.348 20.8565 92.0238 20.5696C92.7139 20.2827 93.3034 19.881 93.7923 19.3646C94.2811 18.8338 94.655 18.2025 94.9138 17.4709ZM91.4199 12.6937C91.8225 13.2532 92.0238 14.0278 92.0238 15.0177C92.0238 16.0076 91.8225 16.7966 91.4199 17.3848C91.0317 17.9587 90.4709 18.2456 89.7377 18.2456C89.0044 18.2456 88.4364 17.9587 88.0338 17.3848C87.6313 16.7966 87.43 16.0076 87.43 15.0177C87.43 14.0278 87.6313 13.2532 88.0338 12.6937C88.4364 12.1198 89.0044 11.8329 89.7377 11.8329C90.4709 11.8329 91.0317 12.1198 91.4199 12.6937ZM12.9591 7.35657L12.963 7.69343L12.9632 7.69346C14.9578 8.39753 16.1989 9.89041 16.2027 11.7874C16.2132 12.7092 15.7965 13.494 15.0564 13.9281C14.8626 14.0366 14.6331 14.1279 14.4031 14.1838L14.4124 14.9993C14.4358 17.038 13.0363 18.7383 11.1435 19.2032L10.6057 20.2554C10.4319 20.5765 9.97085 20.5818 9.78978 20.2648L9.22802 19.2252C7.32522 18.8037 5.88681 17.1182 5.86365 15.0972L5.85431 14.2817C5.6232 14.2312 5.40948 14.1627 5.19527 14.041C4.44548 13.6242 4.01085 12.849 4.00028 11.9272C3.97855 10.0303 5.20282 8.50931 7.16319 7.7599L7.15933 7.42305C7.15364 6.92671 7.29007 6.44651 7.51581 6.01838L6.85209 5.37001C6.65496 5.19494 6.6515 4.89358 6.84437 4.69633C7.01953 4.49929 7.32104 4.49584 7.51837 4.68861L8.11036 5.26691C8.61937 4.80014 9.29012 4.50875 10.035 4.50021C10.7799 4.49168 11.4572 4.7675 11.9767 5.20479L12.5375 4.63108C12.7127 4.43404 13.0142 4.43058 13.2115 4.62336C13.4087 4.79843 13.4121 5.09979 13.2193 5.29703L12.5706 5.96044C12.8059 6.36549 12.9533 6.84254 12.9591 7.35657ZM6.8582 15.1921C6.86165 15.4935 6.9183 15.7942 7.01026 16.0769L13.342 16.0044C13.4274 15.7197 13.4595 15.4179 13.4737 15.1164L6.8582 15.1921ZM10.1939 18.363C11.0097 18.3537 11.7511 18.0438 12.3133 17.5586L8.05668 17.6074C8.62965 18.0796 9.37799 18.3724 10.1939 18.363ZM10.1107 11.0947C9.75074 12.1981 9.19288 13.0555 8.43679 13.6315L11.8422 13.5925C11.073 13.034 10.4958 12.1895 10.1107 11.0947ZM9.59863 8.21061C6.3903 8.40693 4.95599 10.1786 4.97589 11.9159L4.97586 11.9159C4.98236 12.4832 5.23594 12.9412 5.68239 13.2021C6.21793 13.4974 6.94453 13.4359 7.59646 13.0561C8.19539 12.6946 9.5477 11.5089 9.59863 8.21061ZM12.669 12.9978C13.312 13.3805 14.0573 13.4075 14.5859 13.1001L14.5859 13.1001C15.0262 12.8292 15.2693 12.3655 15.263 11.8157C15.2431 10.0784 13.7686 8.34002 10.5566 8.21727C10.6828 11.4958 12.0619 12.6502 12.669 12.9978Z" fill="currentColor"/>
</svg>