<svg width="40" height="41" viewBox="0 0 40 41" fill="none" xmlns="http://www.w3.org/2000/svg">
<rect x="2" y="3" width="38" height="38" rx="6" fill="#34D399"/>
<rect width="38" height="39" rx="6" fill="#A7F3D0"/>
<path d="M23.0621 12.3676C23.0898 12.2773 23.0995 12.1825 23.0906 12.0885C23.0817 11.9946 23.0544 11.9032 23.0102 11.8198C22.9661 11.7364 22.9059 11.6625 22.8331 11.6023C22.7604 11.5421 22.6765 11.4969 22.5863 11.4691C22.496 11.4414 22.4012 11.4317 22.3072 11.4406C22.2132 11.4495 22.1219 11.4768 22.0385 11.521C21.9551 11.5652 21.8812 11.6253 21.821 11.6981C21.7608 11.7708 21.7156 11.8547 21.6878 11.9449L15.9378 30.6325C15.8818 30.8147 15.9004 31.0117 15.9897 31.1802C16.0789 31.3487 16.2314 31.4748 16.4136 31.5309C16.5959 31.5869 16.7929 31.5683 16.9614 31.4791C17.1299 31.3898 17.256 31.2373 17.3121 31.0551L23.0621 12.3676ZM14.9776 15.9599C15.0445 16.0267 15.0976 16.106 15.1338 16.1933C15.1701 16.2806 15.1887 16.3742 15.1887 16.4688C15.1887 16.5633 15.1701 16.6569 15.1338 16.7442C15.0976 16.8316 15.0445 16.9109 14.9776 16.9776L10.4538 21.5L14.9776 26.0224C15.1125 26.1573 15.1884 26.3404 15.1884 26.5313C15.1884 26.7221 15.1125 26.9052 14.9776 27.0401C14.8426 27.1751 14.6596 27.2509 14.4687 27.2509C14.2778 27.2509 14.0948 27.1751 13.9598 27.0401L8.92857 22.0089C8.86163 21.9421 8.80853 21.8628 8.77229 21.7755C8.73606 21.6882 8.71741 21.5946 8.71741 21.5C8.71741 21.4055 8.73606 21.3119 8.77229 21.2245C8.80853 21.1372 8.86163 21.0579 8.92857 20.9911L13.9598 15.9599C14.0266 15.893 14.1059 15.8398 14.1932 15.8036C14.2805 15.7674 14.3742 15.7487 14.4687 15.7487C14.5632 15.7487 14.6568 15.7674 14.7442 15.8036C14.8315 15.8398 14.9108 15.893 14.9776 15.9599ZM24.0223 15.9599C23.9554 16.0267 23.9023 16.106 23.866 16.1933C23.8298 16.2806 23.8112 16.3742 23.8112 16.4688C23.8112 16.5633 23.8298 16.6569 23.866 16.7442C23.9023 16.8316 23.9554 16.9109 24.0223 16.9776L28.5461 21.5L24.0223 26.0224C23.9555 26.0892 23.9025 26.1685 23.8663 26.2559C23.8301 26.3432 23.8115 26.4368 23.8115 26.5313C23.8115 26.6258 23.8301 26.7194 23.8663 26.8067C23.9025 26.894 23.9555 26.9733 24.0223 27.0401C24.0891 27.107 24.1685 27.16 24.2558 27.1961C24.3431 27.2323 24.4367 27.2509 24.5312 27.2509C24.6257 27.2509 24.7193 27.2323 24.8066 27.1961C24.8939 27.16 24.9732 27.107 25.0401 27.0401L30.0713 22.0089C30.1383 21.9421 30.1914 21.8628 30.2276 21.7755C30.2638 21.6882 30.2825 21.5946 30.2825 21.5C30.2825 21.4055 30.2638 21.3119 30.2276 21.2245C30.1914 21.1372 30.1383 21.0579 30.0713 20.9911L25.0401 15.9599C24.9733 15.893 24.894 15.8398 24.8067 15.8036C24.7193 15.7674 24.6257 15.7487 24.5312 15.7487C24.4367 15.7487 24.343 15.7674 24.2557 15.8036C24.1684 15.8398 24.0891 15.893 24.0223 15.9599Z" fill="white"/>
</svg>
