<svg width="105" height="20" viewBox="0 0 105 20" fill="none" xmlns="http://www.w3.org/2000/svg">
<path d="M33.8735 10.7596C33.8735 9.49705 33.5564 8.52584 32.9223 7.84599C32.2882 7.16615 31.4426 6.82622 30.3857 6.82622C29.7939 6.82622 29.3288 6.84703 28.9906 6.88866C28.6665 6.93028 28.4058 6.97884 28.2085 7.03434V13.8606C28.4481 14.0548 28.7933 14.2421 29.2443 14.4225C29.6952 14.6028 30.1884 14.693 30.7239 14.693C31.2876 14.693 31.7668 14.5959 32.1613 14.4017C32.57 14.1935 32.9012 13.9161 33.1548 13.5692C33.4085 13.2085 33.5917 12.7922 33.7044 12.3205C33.8171 11.8349 33.8735 11.3146 33.8735 10.7596ZM35.9239 10.7596C35.9239 11.5782 35.8112 12.3344 35.5857 13.0281C35.3743 13.7218 35.0572 14.3184 34.6345 14.8179C34.2117 15.3174 33.6903 15.7059 33.0703 15.9834C32.4643 16.2608 31.7668 16.3996 30.9776 16.3996C30.3435 16.3996 29.7798 16.3163 29.2866 16.1498C28.8074 15.9834 28.4481 15.8238 28.2085 15.6712V20H26.2427V5.66077C26.7077 5.54977 27.2855 5.43184 27.976 5.30697C28.6806 5.16823 29.4909 5.09885 30.4069 5.09885C31.2524 5.09885 32.0134 5.23066 32.6898 5.49428C33.3662 5.75789 33.944 6.1325 34.4231 6.61811C34.9022 7.10371 35.2686 7.70031 35.5223 8.40791C35.79 9.10163 35.9239 9.88554 35.9239 10.7596Z" fill="currentColor"/>
<path d="M41.808 16.358C40.5961 16.3302 39.7365 16.0735 39.2292 15.5879C38.7219 15.1023 38.4682 14.3462 38.4682 13.3195V0.332986L40.4341 0V13.0073C40.4341 13.3264 40.4623 13.59 40.5186 13.7981C40.575 14.0062 40.6666 14.1727 40.7934 14.2976C40.9202 14.4225 41.0894 14.5196 41.3007 14.589C41.5121 14.6445 41.7728 14.693 42.0828 14.7347L41.808 16.358Z" fill="currentColor"/>
<path d="M47.8311 14.7555C48.2961 14.7555 48.7048 14.7485 49.0571 14.7347C49.4235 14.7069 49.7265 14.6653 49.966 14.6098V11.384C49.8251 11.3146 49.5926 11.2591 49.2685 11.2175C48.9584 11.162 48.578 11.1342 48.127 11.1342C47.8311 11.1342 47.514 11.155 47.1758 11.1967C46.8517 11.2383 46.5487 11.3285 46.2669 11.4672C45.9991 11.5921 45.7736 11.7725 45.5904 12.0083C45.4072 12.2303 45.3156 12.5286 45.3156 12.9032C45.3156 13.5969 45.5411 14.0826 45.9921 14.36C46.443 14.6237 47.056 14.7555 47.8311 14.7555ZM47.662 5.05723C48.4511 5.05723 49.1134 5.16129 49.6489 5.36941C50.1985 5.56365 50.6354 5.84807 50.9595 6.22268C51.2977 6.58342 51.5373 7.02046 51.6782 7.53382C51.8191 8.0333 51.8896 8.58828 51.8896 9.19875V15.9625C51.7205 15.9903 51.4809 16.0319 51.1709 16.0874C50.875 16.129 50.5367 16.1707 50.1563 16.2123C49.7758 16.2539 49.3601 16.2886 48.9091 16.3163C48.4723 16.358 48.0354 16.3788 47.5986 16.3788C46.9785 16.3788 46.4078 16.3163 45.8864 16.1915C45.365 16.0666 44.914 15.8724 44.5335 15.6087C44.1531 15.3313 43.8571 14.9705 43.6457 14.5265C43.4344 14.0826 43.3287 13.5484 43.3287 12.924C43.3287 12.3274 43.4484 11.8141 43.688 11.384C43.9417 10.9539 44.2799 10.607 44.7026 10.3434C45.1254 10.0798 45.6186 9.88554 46.1823 9.76067C46.746 9.6358 47.3379 9.57336 47.9579 9.57336C48.1552 9.57336 48.3595 9.58724 48.5709 9.61498C48.7823 9.62886 48.9796 9.65661 49.1628 9.69823C49.3601 9.72598 49.5292 9.75373 49.6701 9.78148C49.811 9.80923 49.9096 9.83004 49.966 9.84391V9.30281C49.966 8.9837 49.9308 8.67152 49.8603 8.36628C49.7899 8.04717 49.663 7.76968 49.4798 7.53382C49.2966 7.28408 49.043 7.08984 48.7189 6.95109C48.4088 6.79847 48.0002 6.72216 47.4929 6.72216C46.8446 6.72216 46.2739 6.77072 45.7807 6.86785C45.3016 6.95109 44.9422 7.04128 44.7026 7.1384L44.4701 5.5359C44.7238 5.4249 45.1465 5.32085 45.7384 5.22372C46.3303 5.11273 46.9715 5.05723 47.662 5.05723Z" fill="currentColor"/>
<path d="M56.8139 5.32778H60.9781V6.95109H56.8139V11.9459C56.8139 12.487 56.8562 12.9379 56.9408 13.2986C57.0253 13.6455 57.1521 13.923 57.3212 14.1311C57.4903 14.3254 57.7017 14.4641 57.9554 14.5473C58.209 14.6306 58.505 14.6722 58.8432 14.6722C59.435 14.6722 59.9071 14.6098 60.2594 14.4849C60.6258 14.3462 60.8795 14.249 61.0204 14.1935L61.4009 15.796C61.2036 15.8932 60.8583 16.0111 60.3651 16.1498C59.8719 16.3025 59.3082 16.3788 58.6741 16.3788C57.9272 16.3788 57.3071 16.2886 56.8139 16.1082C56.3348 15.914 55.9473 15.6296 55.6513 15.2549C55.3554 14.8803 55.144 14.4225 55.0172 13.8814C54.9045 13.3264 54.8481 12.6882 54.8481 11.9667V2.31009L56.8139 1.97711V5.32778Z" fill="currentColor"/>
<path d="M67.0203 14.7555C67.4853 14.7555 67.894 14.7485 68.2463 14.7347C68.6127 14.7069 68.9157 14.6653 69.1552 14.6098V11.384C69.0143 11.3146 68.7818 11.2591 68.4577 11.2175C68.1477 11.162 67.7672 11.1342 67.3162 11.1342C67.0203 11.1342 66.7032 11.155 66.365 11.1967C66.0409 11.2383 65.7379 11.3285 65.4561 11.4672C65.1883 11.5921 64.9629 11.7725 64.7797 12.0083C64.5965 12.2303 64.5049 12.5286 64.5049 12.9032C64.5049 13.5969 64.7303 14.0826 65.1813 14.36C65.6322 14.6237 66.2452 14.7555 67.0203 14.7555ZM66.8512 5.05723C67.6404 5.05723 68.3027 5.16129 68.8382 5.36941C69.3878 5.56365 69.8246 5.84807 70.1487 6.22268C70.4869 6.58342 70.7265 7.02046 70.8674 7.53382C71.0083 8.0333 71.0788 8.58828 71.0788 9.19875V15.9625C70.9097 15.9903 70.6701 16.0319 70.3601 16.0874C70.0642 16.129 69.726 16.1707 69.3455 16.2123C68.965 16.2539 68.5493 16.2886 68.0983 16.3163C67.6615 16.358 67.2246 16.3788 66.7878 16.3788C66.1677 16.3788 65.597 16.3163 65.0756 16.1915C64.5542 16.0666 64.1032 15.8724 63.7228 15.6087C63.3423 15.3313 63.0463 14.9705 62.835 14.5265C62.6236 14.0826 62.5179 13.5484 62.5179 12.924C62.5179 12.3274 62.6377 11.8141 62.8772 11.384C63.1309 10.9539 63.4691 10.607 63.8919 10.3434C64.3146 10.0798 64.8078 9.88554 65.3715 9.76067C65.9352 9.6358 66.5271 9.57336 67.1471 9.57336C67.3444 9.57336 67.5488 9.58724 67.7601 9.61498C67.9715 9.62886 68.1688 9.65661 68.352 9.69823C68.5493 9.72598 68.7184 9.75373 68.8593 9.78148C69.0002 9.80923 69.0989 9.83004 69.1552 9.84391V9.30281C69.1552 8.9837 69.12 8.67152 69.0496 8.36628C68.9791 8.04717 68.8523 7.76968 68.6691 7.53382C68.4859 7.28408 68.2322 7.08984 67.9081 6.95109C67.5981 6.79847 67.1894 6.72216 66.6821 6.72216C66.0339 6.72216 65.4631 6.77072 64.9699 6.86785C64.4908 6.95109 64.1314 7.04128 63.8919 7.1384L63.6593 5.5359C63.913 5.4249 64.3358 5.32085 64.9276 5.22372C65.5195 5.11273 66.1607 5.05723 66.8512 5.05723Z" fill="currentColor"/>
<path d="M74.1641 5.63996C74.6151 5.52896 75.214 5.41103 75.9609 5.28616C76.7077 5.16129 77.5674 5.09885 78.5397 5.09885C79.4134 5.09885 80.1392 5.22373 80.7169 5.47346C81.2947 5.70933 81.7527 6.04925 82.0909 6.49324C82.4432 6.92334 82.6898 7.44363 82.8307 8.05411C82.9717 8.66458 83.0421 9.3375 83.0421 10.0728V16.1498H81.0763V10.4891C81.0763 9.8231 81.027 9.25425 80.9283 8.78252C80.8438 8.31079 80.6958 7.92924 80.4844 7.63788C80.273 7.34651 79.9912 7.1384 79.6389 7.01353C79.2866 6.87478 78.8497 6.80541 78.3283 6.80541C78.117 6.80541 77.8985 6.81235 77.6731 6.82622C77.4476 6.8401 77.2292 6.86091 77.0178 6.88866C76.8205 6.90253 76.6373 6.92334 76.4682 6.95109C76.3132 6.97884 76.2004 6.99965 76.13 7.01353V16.1498H74.1641V5.63996Z" fill="currentColor"/>
<path d="M94.8735 15.8377C94.4225 15.9487 93.8236 16.0666 93.0768 16.1915C92.344 16.3163 91.4914 16.3788 90.5191 16.3788C89.6735 16.3788 88.9619 16.2608 88.3841 16.025C87.8063 15.7752 87.3413 15.4284 86.989 14.9844C86.6367 14.5404 86.383 14.0201 86.228 13.4235C86.073 12.813 85.9955 12.1401 85.9955 11.4048V5.32778H87.9613V10.9886C87.9613 12.3066 88.1727 13.2501 88.5955 13.8189C89.0182 14.3878 89.7299 14.6722 90.7304 14.6722C90.9418 14.6722 91.1602 14.6653 91.3857 14.6514C91.6112 14.6375 91.8226 14.6237 92.0199 14.6098C92.2171 14.582 92.3933 14.5612 92.5483 14.5473C92.7174 14.5196 92.8372 14.4918 92.9077 14.4641V5.32778H94.8735V15.8377Z" fill="currentColor"/>
<path d="M100.638 14.7555C101.441 14.7555 102.033 14.6514 102.414 14.4433C102.808 14.2352 103.006 13.9022 103.006 13.4443C103.006 12.9726 102.815 12.598 102.435 12.3205C102.054 12.043 101.427 11.7308 100.554 11.384C100.131 11.2175 99.7222 11.051 99.3277 10.8845C98.9472 10.7041 98.616 10.496 98.3342 10.2601C98.0523 10.0243 97.8269 9.73985 97.6578 9.40687C97.4887 9.07388 97.4041 8.66458 97.4041 8.17898C97.4041 7.22164 97.7635 6.46549 98.4822 5.91051C99.2008 5.34166 100.18 5.05723 101.42 5.05723C101.73 5.05723 102.04 5.07804 102.35 5.11967C102.66 5.14742 102.949 5.18904 103.217 5.24454C103.485 5.28616 103.717 5.33472 103.915 5.39022C104.126 5.44572 104.288 5.49428 104.401 5.5359L104.041 7.20083C103.83 7.08984 103.499 6.97884 103.048 6.86785C102.597 6.74298 102.054 6.68054 101.42 6.68054C100.871 6.68054 100.392 6.79154 99.983 7.01353C99.5743 7.22164 99.3699 7.55463 99.3699 8.01249C99.3699 8.24835 99.4122 8.45647 99.4968 8.63684C99.5954 8.8172 99.7363 8.9837 99.9195 9.13632C100.117 9.27506 100.356 9.40687 100.638 9.53174C100.92 9.65661 101.258 9.78841 101.653 9.92716C102.174 10.1214 102.639 10.3156 103.048 10.5099C103.457 10.6903 103.802 10.9053 104.084 11.155C104.38 11.4048 104.605 11.71 104.76 12.0708C104.915 12.4176 104.993 12.8477 104.993 13.3611C104.993 14.36 104.612 15.1162 103.851 15.6296C103.104 16.1429 102.033 16.3996 100.638 16.3996C99.6659 16.3996 98.9049 16.3163 98.3553 16.1498C97.8057 15.9972 97.4323 15.8793 97.235 15.796L97.5944 14.1311C97.8198 14.2144 98.1792 14.3392 98.6724 14.5057C99.1656 14.6722 99.8209 14.7555 100.638 14.7555Z" fill="currentColor"/>
<path fill-rule="evenodd" clip-rule="evenodd" d="M10.2083 20C15.8462 20 20.4167 15.5228 20.4167 10C20.4167 4.47715 15.8462 0 10.2083 0C4.57043 0 0 4.47715 0 10C0 15.5228 4.57043 20 10.2083 20ZM13.3491 4.23518C13.3224 4.20906 13.2957 4.18295 13.2557 4.15683C13.2335 4.14228 13.1864 4.13583 13.149 4.13072C13.1193 4.12666 13.0958 4.12343 13.0958 4.11765H11.9492C11.9492 4.11765 11.9225 4.11765 11.8958 4.14377C11.8825 4.16989 11.8825 4.18295 11.9225 4.2352C12.3891 4.91436 12.9891 5.97229 13.4157 7.31756C13.6957 8.2057 13.8957 9.04159 13.8557 10.426C13.8291 11.6929 13.4957 12.777 13.1624 13.7696C12.8158 14.8145 12.3491 15.7418 11.8825 16.6561C11.8692 16.6691 11.8558 16.6822 11.8692 16.7083C11.8825 16.7214 11.9225 16.7214 11.9225 16.7214H13.0824C13.0824 16.7214 13.1891 16.7344 13.2424 16.6953C13.2744 16.6718 13.292 16.6482 13.3096 16.6247C13.3213 16.6091 13.3331 16.5934 13.3491 16.5777C14.549 14.9582 15.629 13.0252 15.629 10.4522C15.629 7.89224 14.589 5.95923 13.3491 4.2352L13.3491 4.23518ZM12.3225 6.48166C12.2425 6.28575 11.3625 4.3658 11.3359 4.31356C11.3259 4.29396 11.3159 4.29641 11.3059 4.29886C11.3025 4.29968 11.2992 4.30049 11.2959 4.30049C11.2825 4.31356 11.2692 4.32662 11.2825 4.37886C11.3625 5.08415 11.3892 6.11595 11.1625 7.29143C11.0159 8.06202 10.8292 8.76731 10.2292 9.81218C9.69594 10.7526 9.00265 11.4448 8.34935 12.0717C7.66939 12.7248 6.93609 13.2472 6.21613 13.7566C6.21256 13.7601 6.20899 13.7626 6.20567 13.765C6.19661 13.7715 6.18947 13.7766 6.18947 13.7957C6.18947 13.8088 6.22947 13.8349 6.22947 13.8349L7.10942 14.2921C7.10942 14.2921 7.18941 14.3312 7.24274 14.3312C7.2783 14.3225 7.302 14.3138 7.32571 14.3051C7.33756 14.3008 7.34941 14.2964 7.36274 14.2921C8.93598 13.5215 10.5226 12.4897 11.5758 10.5436C12.1891 9.40729 12.5225 8.28406 12.4958 7.20001C12.4691 6.88655 12.3891 6.65145 12.3225 6.48166ZM10.7359 4.4311C10.7359 4.47028 10.6959 6.16815 10.6826 6.33793C10.6692 6.4816 10.6426 6.67751 10.5359 6.9126C10.1759 7.70929 9.53595 8.41455 8.68266 9.0284C7.22941 10.0863 5.69616 10.2953 4.2829 10.3083C4.24291 10.3083 4.21624 10.3083 4.17625 10.2953C4.13625 10.2822 4.09625 10.2169 4.09625 10.2169L3.61627 9.59C3.61627 9.59 3.60294 9.56388 3.60294 9.55082C3.61627 9.53776 3.62961 9.53776 3.64294 9.53776C4.3629 9.42021 5.06953 9.27655 5.80282 9.04146C6.49612 8.81943 7.25608 8.54516 7.97604 8.04886C8.77599 7.50032 9.16264 7.0432 9.54928 6.53384C10.1226 5.75021 10.4826 4.9927 10.6692 4.45722C10.6826 4.41804 10.6959 4.40498 10.7092 4.40498C10.7226 4.40498 10.7359 4.40498 10.7359 4.4311Z" fill="currentColor"/>
</svg>
